G04 #@! TF.GenerationSoftware,KiCad,Pcbnew,8.0.5*
G04 #@! TF.CreationDate,2024-09-23T11:12:13+08:00*
G04 #@! TF.ProjectId,corne-cherry,636f726e-652d-4636-9865-7272792e6b69,3.0.1*
G04 #@! TF.SameCoordinates,Original*
G04 #@! TF.FileFunction,Soldermask,Bot*
G04 #@! TF.FilePolarity,Negative*
%FSLAX46Y46*%
G04 Gerber Fmt 4.6, Leading zero omitted, Abs format (unit mm)*
G04 Created by KiCad (PCBNEW 8.0.5) date 2024-09-23 11:12:13*
%MOMM*%
%LPD*%
G01*
G04 APERTURE LIST*
G04 Aperture macros list*
%AMRoundRect*
0 Rectangle with rounded corners*
0 $1 Rounding radius*
0 $2 $3 $4 $5 $6 $7 $8 $9 X,Y pos of 4 corners*
0 Add a 4 corners polygon primitive as box body*
4,1,4,$2,$3,$4,$5,$6,$7,$8,$9,$2,$3,0*
0 Add four circle primitives for the rounded corners*
1,1,$1+$1,$2,$3*
1,1,$1+$1,$4,$5*
1,1,$1+$1,$6,$7*
1,1,$1+$1,$8,$9*
0 Add four rect primitives between the rounded corners*
20,1,$1+$1,$2,$3,$4,$5,0*
20,1,$1+$1,$4,$5,$6,$7,0*
20,1,$1+$1,$6,$7,$8,$9,0*
20,1,$1+$1,$8,$9,$2,$3,0*%
G04 Aperture macros list end*
%ADD10C,1.600000*%
%ADD11O,2.900000X2.100000*%
%ADD12O,1.797000X2.178000*%
%ADD13C,2.400000*%
%ADD14C,2.300000*%
%ADD15C,3.400000*%
%ADD16C,4.500000*%
%ADD17RoundRect,0.200000X1.275000X1.250000X-1.275000X1.250000X-1.275000X-1.250000X1.275000X-1.250000X0*%
%ADD18RoundRect,0.200000X1.555079X0.877413X-0.908032X1.537402X-1.555079X-0.877413X0.908032X-1.537402X0*%
%ADD19RoundRect,0.200000X-0.445032X1.729182X-1.720032X-0.479182X0.445032X-1.729182X1.720032X0.479182X0*%
%ADD20RoundRect,0.200000X1.720032X-0.479182X0.445032X1.729182X-1.720032X0.479182X-0.445032X-1.729182X0*%
%ADD21RoundRect,0.200000X0.908032X1.537402X-1.555079X0.877413X-0.908032X-1.537402X1.555079X-0.877413X0*%
%ADD22C,4.700000*%
%ADD23C,2.600000*%
%ADD24C,1.924000*%
%ADD25C,0.700000*%
%ADD26RoundRect,0.333333X-0.741667X0.466667X-0.741667X-0.466667X0.741667X-0.466667X0.741667X0.466667X0*%
%ADD27RoundRect,0.333333X0.741667X-0.466667X0.741667X0.466667X-0.741667X0.466667X-0.741667X-0.466667X0*%
%ADD28RoundRect,0.200000X0.500000X-0.700000X0.500000X0.700000X-0.500000X0.700000X-0.500000X-0.700000X0*%
%ADD29RoundRect,0.200000X-0.850000X-0.500000X0.850000X-0.500000X0.850000X0.500000X-0.850000X0.500000X0*%
%ADD30RoundRect,0.200000X0.008013X-0.986122X0.858013X0.486122X-0.008013X0.986122X-0.858013X-0.486122X0*%
%ADD31RoundRect,0.200000X0.750000X0.500000X-0.750000X0.500000X-0.750000X-0.500000X0.750000X-0.500000X0*%
%ADD32RoundRect,0.200000X-0.691627X-0.702959X0.950446X-0.262967X0.691627X0.702959X-0.950446X0.262967X0*%
%ADD33RoundRect,0.200000X-0.950446X-0.262967X0.691627X-0.702959X0.950446X0.262967X-0.691627X0.702959X0*%
%ADD34RoundRect,0.200000X-0.858013X0.486122X-0.008013X-0.986122X0.858013X-0.486122X0.008013X0.986122X0*%
%ADD35C,1.300000*%
%ADD36RoundRect,0.200000X-0.350000X-0.750000X0.350000X-0.750000X0.350000X0.750000X-0.350000X0.750000X0*%
%ADD37RoundRect,0.200000X-0.500000X-0.400000X0.500000X-0.400000X0.500000X0.400000X-0.500000X0.400000X0*%
G04 APERTURE END LIST*
D10*
X142634500Y-74292000D03*
X135634500Y-74292000D03*
D11*
X132334500Y-72192000D03*
X140834500Y-76392000D03*
X137834500Y-76392000D03*
X133834500Y-76392000D03*
D12*
X130948500Y-67028000D03*
X133488500Y-67028000D03*
X136028500Y-67028000D03*
X138568500Y-67028000D03*
D13*
X142424500Y-69781000D03*
X142424500Y-63281000D03*
D14*
X34027500Y-35780000D03*
D15*
X35297500Y-33240000D03*
D16*
X39107500Y-35780000D03*
D15*
X41647500Y-30700000D03*
D14*
X44187500Y-35780000D03*
D17*
X32022500Y-33240000D03*
X44949500Y-30700000D03*
D14*
X53027500Y-31030000D03*
D15*
X54297500Y-28490000D03*
D16*
X58107500Y-31030000D03*
D15*
X60647500Y-25950000D03*
D14*
X63187500Y-31030000D03*
D17*
X51022500Y-28490000D03*
X63949500Y-25950000D03*
D14*
X72027500Y-28655000D03*
D15*
X73297500Y-26115000D03*
D16*
X77107500Y-28655000D03*
D15*
X79647500Y-23575000D03*
D14*
X82187500Y-28655000D03*
D17*
X70022500Y-26115000D03*
X82949500Y-23575000D03*
D14*
X91027500Y-31030000D03*
D15*
X92297500Y-28490000D03*
D16*
X96107500Y-31030000D03*
D15*
X98647500Y-25950000D03*
D14*
X101187500Y-31030000D03*
D17*
X89022500Y-28490000D03*
X101949500Y-25950000D03*
D14*
X15027500Y-54780000D03*
D15*
X16297500Y-52240000D03*
D16*
X20107500Y-54780000D03*
D15*
X22647500Y-49700000D03*
D14*
X25187500Y-54780000D03*
D17*
X13022500Y-52240000D03*
X25949500Y-49700000D03*
D14*
X34027500Y-54780000D03*
D15*
X35297500Y-52240000D03*
D16*
X39107500Y-54780000D03*
D15*
X41647500Y-49700000D03*
D14*
X44187500Y-54780000D03*
D17*
X32022500Y-52240000D03*
X44949500Y-49700000D03*
D14*
X53027500Y-50030000D03*
D15*
X54297500Y-47490000D03*
D16*
X58107500Y-50030000D03*
D15*
X60647500Y-44950000D03*
D14*
X63187500Y-50030000D03*
D17*
X51022500Y-47490000D03*
X63949500Y-44950000D03*
D14*
X72027500Y-47655000D03*
D15*
X73297500Y-45115000D03*
D16*
X77107500Y-47655000D03*
D15*
X79647500Y-42575000D03*
D14*
X82187500Y-47655000D03*
D17*
X70022500Y-45115000D03*
X82949500Y-42575000D03*
D14*
X91027500Y-50030000D03*
D15*
X92297500Y-47490000D03*
D16*
X96107500Y-50030000D03*
D15*
X98647500Y-44950000D03*
D14*
X101187500Y-50030000D03*
D17*
X89022500Y-47490000D03*
X101949500Y-44950000D03*
D14*
X110027500Y-52405000D03*
D15*
X111297500Y-49865000D03*
D16*
X115107500Y-52405000D03*
D15*
X117647500Y-47325000D03*
D14*
X120187500Y-52405000D03*
D17*
X108022500Y-49865000D03*
X120949500Y-47325000D03*
D14*
X15027500Y-73780000D03*
D15*
X16297500Y-71240000D03*
D16*
X20107500Y-73780000D03*
D15*
X22647500Y-68700000D03*
D14*
X25187500Y-73780000D03*
D17*
X13022500Y-71240000D03*
X25949500Y-68700000D03*
D14*
X34027500Y-73780000D03*
D15*
X35297500Y-71240000D03*
D16*
X39107500Y-73780000D03*
D15*
X41647500Y-68700000D03*
D14*
X44187500Y-73780000D03*
D17*
X32022500Y-71240000D03*
X44949500Y-68700000D03*
D14*
X53027500Y-69030000D03*
D15*
X54297500Y-66490000D03*
D16*
X58107500Y-69030000D03*
D15*
X60647500Y-63950000D03*
D14*
X63187500Y-69030000D03*
D17*
X51022500Y-66490000D03*
X63949500Y-63950000D03*
D14*
X72027500Y-66655000D03*
D15*
X73297500Y-64115000D03*
D16*
X77107500Y-66655000D03*
D15*
X79647500Y-61575000D03*
D14*
X82187500Y-66655000D03*
D17*
X70022500Y-64115000D03*
X82949500Y-61575000D03*
D14*
X91027500Y-69030000D03*
D15*
X92297500Y-66490000D03*
D16*
X96107500Y-69030000D03*
D15*
X98647500Y-63950000D03*
D14*
X101187500Y-69030000D03*
D17*
X89022500Y-66490000D03*
X101949500Y-63950000D03*
D14*
X110027500Y-71405000D03*
D15*
X111297500Y-68865000D03*
D16*
X115107500Y-71405000D03*
D15*
X117647500Y-66325000D03*
D14*
X120187500Y-71405000D03*
D17*
X108022500Y-68865000D03*
X120949500Y-66325000D03*
D14*
X81527500Y-88655000D03*
D15*
X82797500Y-86115000D03*
D16*
X86607500Y-88655000D03*
D15*
X89147500Y-83575000D03*
D14*
X91687500Y-88655000D03*
D17*
X79522500Y-86115000D03*
X92449500Y-83575000D03*
D14*
X102700597Y-90090199D03*
D15*
X104584723Y-87965448D03*
D16*
X107607500Y-91405000D03*
D15*
X111375752Y-87155497D03*
D14*
X112514403Y-92719801D03*
D18*
X101421316Y-87117815D03*
X114565239Y-88010118D03*
D14*
X127317500Y-99554409D03*
D15*
X125752795Y-97184557D03*
D16*
X129857500Y-95155000D03*
D15*
X126728091Y-90415295D03*
D14*
X132397500Y-90755591D03*
D19*
X124115295Y-100020790D03*
X128379091Y-87555680D03*
D14*
X164324500Y-90750591D03*
D15*
X167159205Y-90580443D03*
D16*
X166864500Y-95150000D03*
D15*
X172533909Y-94809705D03*
D14*
X169404500Y-99549409D03*
D20*
X165521705Y-87744210D03*
X174184909Y-97669320D03*
D10*
X154037500Y-74270000D03*
X161037500Y-74270000D03*
D11*
X164337500Y-76370000D03*
X155837500Y-72170000D03*
X158837500Y-72170000D03*
X162837500Y-72170000D03*
D12*
X158177500Y-67020000D03*
X160717500Y-67020000D03*
X163257500Y-67020000D03*
X165797500Y-67020000D03*
D13*
X154304500Y-69772000D03*
X154304500Y-63272000D03*
D14*
X214534500Y-66650000D03*
D15*
X215804500Y-64110000D03*
D16*
X219614500Y-66650000D03*
D15*
X222154500Y-61570000D03*
D14*
X224694500Y-66650000D03*
D17*
X212529500Y-64110000D03*
X225456500Y-61570000D03*
D14*
X195534500Y-69025000D03*
D15*
X196804500Y-66485000D03*
D16*
X200614500Y-69025000D03*
D15*
X203154500Y-63945000D03*
D14*
X205694500Y-69025000D03*
D17*
X193529500Y-66485000D03*
X206456500Y-63945000D03*
D14*
X176534500Y-71400000D03*
D15*
X177804500Y-68860000D03*
D16*
X181614500Y-71400000D03*
D15*
X184154500Y-66320000D03*
D14*
X186694500Y-71400000D03*
D17*
X174529500Y-68860000D03*
X187456500Y-66320000D03*
D14*
X205034500Y-88650000D03*
D15*
X206304500Y-86110000D03*
D16*
X210114500Y-88650000D03*
D15*
X212654500Y-83570000D03*
D14*
X215194500Y-88650000D03*
D17*
X203029500Y-86110000D03*
X215956500Y-83570000D03*
D14*
X184207597Y-92714801D03*
D15*
X184776922Y-89932649D03*
D16*
X189114500Y-91400000D03*
D15*
X190253151Y-85835696D03*
D14*
X194021403Y-90085199D03*
D21*
X181613515Y-90780281D03*
X193442638Y-84981076D03*
D14*
X214534500Y-28650000D03*
D15*
X215804500Y-26110000D03*
D16*
X219614500Y-28650000D03*
D15*
X222154500Y-23570000D03*
D14*
X224694500Y-28650000D03*
D17*
X212529500Y-26110000D03*
X225456500Y-23570000D03*
D14*
X195534500Y-31025000D03*
D15*
X196804500Y-28485000D03*
D16*
X200614500Y-31025000D03*
D15*
X203154500Y-25945000D03*
D14*
X205694500Y-31025000D03*
D17*
X193529500Y-28485000D03*
X206456500Y-25945000D03*
D14*
X271534500Y-54775000D03*
D15*
X272804500Y-52235000D03*
D16*
X276614500Y-54775000D03*
D15*
X279154500Y-49695000D03*
D14*
X281694500Y-54775000D03*
D17*
X269529500Y-52235000D03*
X282456500Y-49695000D03*
D14*
X233534500Y-31025000D03*
D15*
X234804500Y-28485000D03*
D16*
X238614500Y-31025000D03*
D15*
X241154500Y-25945000D03*
D14*
X243694500Y-31025000D03*
D17*
X231529500Y-28485000D03*
X244456500Y-25945000D03*
D14*
X252534500Y-54775000D03*
D15*
X253804500Y-52235000D03*
D16*
X257614500Y-54775000D03*
D15*
X260154500Y-49695000D03*
D14*
X262694500Y-54775000D03*
D17*
X250529500Y-52235000D03*
X263456500Y-49695000D03*
D14*
X252534500Y-73775000D03*
D15*
X253804500Y-71235000D03*
D16*
X257614500Y-73775000D03*
D15*
X260154500Y-68695000D03*
D14*
X262694500Y-73775000D03*
D17*
X250529500Y-71235000D03*
X263456500Y-68695000D03*
D14*
X233534500Y-69025000D03*
D15*
X234804500Y-66485000D03*
D16*
X238614500Y-69025000D03*
D15*
X241154500Y-63945000D03*
D14*
X243694500Y-69025000D03*
D17*
X231529500Y-66485000D03*
X244456500Y-63945000D03*
D14*
X271534500Y-35775000D03*
D15*
X272804500Y-33235000D03*
D16*
X276614500Y-35775000D03*
D15*
X279154500Y-30695000D03*
D14*
X281694500Y-35775000D03*
D17*
X269529500Y-33235000D03*
X282456500Y-30695000D03*
D14*
X252534500Y-35775000D03*
D15*
X253804500Y-33235000D03*
D16*
X257614500Y-35775000D03*
D15*
X260154500Y-30695000D03*
D14*
X262694500Y-35775000D03*
D17*
X250529500Y-33235000D03*
X263456500Y-30695000D03*
D14*
X233534500Y-50025000D03*
D15*
X234804500Y-47485000D03*
D16*
X238614500Y-50025000D03*
D15*
X241154500Y-44945000D03*
D14*
X243694500Y-50025000D03*
D17*
X231529500Y-47485000D03*
X244456500Y-44945000D03*
D14*
X214534500Y-47650000D03*
D15*
X215804500Y-45110000D03*
D16*
X219614500Y-47650000D03*
D15*
X222154500Y-42570000D03*
D14*
X224694500Y-47650000D03*
D17*
X212529500Y-45110000D03*
X225456500Y-42570000D03*
D14*
X195534500Y-50025000D03*
D15*
X196804500Y-47485000D03*
D16*
X200614500Y-50025000D03*
D15*
X203154500Y-44945000D03*
D14*
X205694500Y-50025000D03*
D17*
X193529500Y-47485000D03*
X206456500Y-44945000D03*
D14*
X176534500Y-52400000D03*
D15*
X177804500Y-49860000D03*
D16*
X181614500Y-52400000D03*
D15*
X184154500Y-47320000D03*
D14*
X186694500Y-52400000D03*
D17*
X174529500Y-49860000D03*
X187456500Y-47320000D03*
D14*
X271534500Y-73775000D03*
D15*
X272804500Y-71235000D03*
D16*
X276614500Y-73775000D03*
D15*
X279154500Y-68695000D03*
D14*
X281694500Y-73775000D03*
D17*
X269529500Y-71235000D03*
X282456500Y-68695000D03*
D14*
X15027500Y-35780000D03*
D15*
X16297500Y-33240000D03*
D16*
X20107500Y-35780000D03*
D15*
X22647500Y-30700000D03*
D14*
X25187500Y-35780000D03*
D17*
X13022500Y-33240000D03*
X25949500Y-30700000D03*
D22*
X105575500Y-41765500D03*
X72764500Y-81520500D03*
X119330500Y-89135000D03*
D23*
X127869500Y-74254000D03*
X142301500Y-82775000D03*
D22*
X177389500Y-89145000D03*
X223955500Y-81530500D03*
X267099500Y-45265500D03*
X191144500Y-41775500D03*
D14*
X110027500Y-33405000D03*
D15*
X111297500Y-30865000D03*
D16*
X115107500Y-33405000D03*
D15*
X117647500Y-28325000D03*
D14*
X120187500Y-33405000D03*
D17*
X108022500Y-30865000D03*
X120949500Y-28325000D03*
D14*
X176527500Y-33405000D03*
D15*
X177797500Y-30865000D03*
D16*
X181607500Y-33405000D03*
D15*
X184147500Y-28325000D03*
D14*
X186687500Y-33405000D03*
D17*
X174522500Y-30865000D03*
X187449500Y-28325000D03*
D22*
X29607500Y-64280000D03*
D24*
X142423900Y-31942000D03*
X142423900Y-34482000D03*
X142423900Y-37022000D03*
X142423900Y-39562000D03*
X142423900Y-42102000D03*
X142423900Y-44642000D03*
X142423900Y-47182000D03*
X142423900Y-49722000D03*
X142423900Y-52262000D03*
X142423900Y-54802000D03*
X142423900Y-57342000D03*
X142423900Y-59882000D03*
X127203900Y-59882000D03*
X127203900Y-57342000D03*
X127203900Y-54802000D03*
X127203900Y-52262000D03*
X127203900Y-49722000D03*
X127203900Y-47182000D03*
X127203900Y-44642000D03*
X127203900Y-42102000D03*
X127203900Y-39562000D03*
X127203900Y-37022000D03*
X127203900Y-34482000D03*
X127203900Y-31942000D03*
X169598900Y-31912000D03*
X169598900Y-34452000D03*
X169598900Y-36992000D03*
X169598900Y-39532000D03*
X169598900Y-42072000D03*
X169598900Y-44612000D03*
X169598900Y-47152000D03*
X169598900Y-49692000D03*
X169598900Y-52232000D03*
X169598900Y-54772000D03*
X169598900Y-57312000D03*
X169598900Y-59852000D03*
X154378900Y-59852000D03*
X154378900Y-57312000D03*
X154378900Y-54772000D03*
X154378900Y-52232000D03*
X154378900Y-49692000D03*
X154378900Y-47152000D03*
X154378900Y-44612000D03*
X154378900Y-42072000D03*
X154378900Y-39532000D03*
X154378900Y-36992000D03*
X154378900Y-34452000D03*
X154378900Y-31912000D03*
D22*
X29607500Y-45280000D03*
D25*
X55861750Y-21869000D03*
X56455500Y-21869000D03*
X57049250Y-21869000D03*
X57643000Y-21869000D03*
X58236750Y-21869000D03*
X58830500Y-21869000D03*
X59424250Y-21869000D03*
X60018000Y-21869000D03*
X60611750Y-21869000D03*
X93832500Y-21873000D03*
X94426250Y-21873000D03*
X95020000Y-21873000D03*
X95613750Y-21873000D03*
X96207500Y-21873000D03*
X96801250Y-21873000D03*
X97395000Y-21873000D03*
X97988750Y-21873000D03*
X98582500Y-21873000D03*
X17787500Y-83176000D03*
X18381250Y-83176000D03*
X18975000Y-83176000D03*
X19568750Y-83176000D03*
X20162500Y-83176000D03*
X20756250Y-83176000D03*
X21350000Y-83176000D03*
X21943750Y-83176000D03*
X22537500Y-83176000D03*
X55748500Y-83178000D03*
X56342250Y-83178000D03*
X56936000Y-83178000D03*
X57529750Y-83178000D03*
X58123500Y-83178000D03*
X58717250Y-83178000D03*
X59311000Y-83178000D03*
X59904750Y-83178000D03*
X60498500Y-83178000D03*
D26*
X137834500Y-74392000D03*
D27*
X158837500Y-74170000D03*
D28*
X27734500Y-37551875D03*
X27734500Y-34001875D03*
X46734500Y-37555000D03*
X46734500Y-34005000D03*
X65707500Y-32555000D03*
X65707500Y-29005000D03*
X84707500Y-30430000D03*
X84707500Y-26880000D03*
X103707500Y-32805000D03*
X103707500Y-29255000D03*
X122707500Y-35180000D03*
X122707500Y-31630000D03*
X27734500Y-56551875D03*
X27734500Y-53001875D03*
X46734500Y-56555000D03*
X46734500Y-53005000D03*
X65707500Y-51805000D03*
X65707500Y-48255000D03*
X84707500Y-49430000D03*
X84707500Y-45880000D03*
X103707500Y-51805000D03*
X103707500Y-48255000D03*
X122707500Y-54180000D03*
X122707500Y-50630000D03*
X27734500Y-75551875D03*
X27734500Y-72001875D03*
X46734500Y-75555000D03*
X46734500Y-72005000D03*
X65707500Y-70805000D03*
X65707500Y-67255000D03*
X84707500Y-68430000D03*
X84707500Y-64880000D03*
X103707500Y-70805000D03*
X103707500Y-67255000D03*
X122707500Y-73180000D03*
X122707500Y-69630000D03*
X76157500Y-90545000D03*
X76157500Y-86995000D03*
X95164500Y-90540000D03*
X95164500Y-86990000D03*
X98007500Y-90540000D03*
X98007500Y-86990000D03*
D29*
X22857500Y-41230000D03*
X22857500Y-39830000D03*
X17357500Y-39830000D03*
X17357500Y-41230000D03*
X41857500Y-41230000D03*
X41857500Y-39830000D03*
X36357500Y-39830000D03*
X36357500Y-41230000D03*
X60857500Y-36480000D03*
X60857500Y-35080000D03*
X55357500Y-35080000D03*
X55357500Y-36480000D03*
X79857500Y-34105000D03*
X79857500Y-32705000D03*
X74357500Y-32705000D03*
X74357500Y-34105000D03*
X98857500Y-36480000D03*
X98857500Y-35080000D03*
X93357500Y-35080000D03*
X93357500Y-36480000D03*
X117857500Y-38855000D03*
X117857500Y-37455000D03*
X112357500Y-37455000D03*
X112357500Y-38855000D03*
X22857500Y-60230000D03*
X22857500Y-58830000D03*
X17357500Y-58830000D03*
X17357500Y-60230000D03*
X41857500Y-60230000D03*
X41857500Y-58830000D03*
X36357500Y-58830000D03*
X36357500Y-60230000D03*
X60857500Y-55480000D03*
X60857500Y-54080000D03*
X55357500Y-54080000D03*
X55357500Y-55480000D03*
X79857500Y-53105000D03*
X79857500Y-51705000D03*
X74357500Y-51705000D03*
X74357500Y-53105000D03*
X98857500Y-55480000D03*
X98857500Y-54080000D03*
X93357500Y-54080000D03*
X93357500Y-55480000D03*
X117857500Y-57855000D03*
X117857500Y-56455000D03*
X112357500Y-56455000D03*
X112357500Y-57855000D03*
X22857500Y-79230000D03*
X22857500Y-77830000D03*
X17357500Y-77830000D03*
X17357500Y-79230000D03*
X41857500Y-79230000D03*
X41857500Y-77830000D03*
X36357500Y-77830000D03*
X36357500Y-79230000D03*
X60857500Y-74480000D03*
X60857500Y-73080000D03*
X55357500Y-73080000D03*
X55357500Y-74480000D03*
X79857500Y-72105000D03*
X79857500Y-70705000D03*
X74357500Y-70705000D03*
X74357500Y-72105000D03*
X117857500Y-76855000D03*
X117857500Y-75455000D03*
X112357500Y-75455000D03*
X112357500Y-76855000D03*
D30*
X135952339Y-95498430D03*
X134739903Y-94798430D03*
X131989903Y-99561570D03*
X133202339Y-100261570D03*
D31*
X41557500Y-43680000D03*
X41557500Y-46880000D03*
X36657500Y-46880000D03*
X36657500Y-43680000D03*
X79557500Y-36555000D03*
X79557500Y-39755000D03*
X74657500Y-39755000D03*
X74657500Y-36555000D03*
X117557500Y-41305000D03*
X117557500Y-44505000D03*
X112657500Y-44505000D03*
X112657500Y-41305000D03*
X79557500Y-74555000D03*
X79557500Y-77755000D03*
X74657500Y-77755000D03*
X74657500Y-74555000D03*
X117557500Y-79305000D03*
X117557500Y-82505000D03*
X112657500Y-82505000D03*
X112657500Y-79305000D03*
X260057500Y-43680000D03*
X260057500Y-46880000D03*
X255157500Y-46880000D03*
X255157500Y-43680000D03*
X222057500Y-36555000D03*
X222057500Y-39755000D03*
X217157500Y-39755000D03*
X217157500Y-36555000D03*
X184057500Y-41305000D03*
X184057500Y-44505000D03*
X179157500Y-44505000D03*
X179157500Y-41305000D03*
X260057500Y-62680000D03*
X260057500Y-65880000D03*
X255157500Y-65880000D03*
X255157500Y-62680000D03*
X222057500Y-74555000D03*
X222057500Y-77755000D03*
X217157500Y-77755000D03*
X217157500Y-74555000D03*
X184057500Y-79305000D03*
X184057500Y-82505000D03*
X179157500Y-82505000D03*
X179157500Y-79305000D03*
D29*
X222357500Y-53105000D03*
X222357500Y-51705000D03*
X216857500Y-51705000D03*
X216857500Y-53105000D03*
X203357500Y-55480000D03*
X203357500Y-54080000D03*
X197857500Y-54080000D03*
X197857500Y-55480000D03*
X184357500Y-57855000D03*
X184357500Y-56455000D03*
X178857500Y-56455000D03*
X178857500Y-57855000D03*
X279357500Y-79230000D03*
X279357500Y-77830000D03*
X273857500Y-77830000D03*
X273857500Y-79230000D03*
X260357500Y-79230000D03*
X260357500Y-77830000D03*
X254857500Y-77830000D03*
X254857500Y-79230000D03*
X241357500Y-74480000D03*
X241357500Y-73080000D03*
X235857500Y-73080000D03*
X235857500Y-74480000D03*
X222357500Y-72105000D03*
X222357500Y-70705000D03*
X216857500Y-70705000D03*
X216857500Y-72105000D03*
X203357500Y-74480000D03*
X203357500Y-73080000D03*
X197857500Y-73080000D03*
X197857500Y-74480000D03*
X184357500Y-76855000D03*
X184357500Y-75455000D03*
X178857500Y-75455000D03*
X178857500Y-76855000D03*
X212857500Y-94105000D03*
X212857500Y-92705000D03*
X207357500Y-92705000D03*
X207357500Y-94105000D03*
D32*
X193181359Y-95952544D03*
X192819013Y-94600249D03*
X187506421Y-96023752D03*
X187868767Y-97376047D03*
D28*
X265214500Y-37550000D03*
X265214500Y-34000000D03*
X246214500Y-32800000D03*
X246214500Y-29250000D03*
X227214500Y-30425000D03*
X227214500Y-26875000D03*
X189207500Y-35180000D03*
X189207500Y-31630000D03*
X284214500Y-56400000D03*
X284214500Y-52850000D03*
X265214500Y-56550000D03*
X265214500Y-53000000D03*
X246214500Y-51800000D03*
X246214500Y-48250000D03*
X227214500Y-49425000D03*
X227214500Y-45875000D03*
X208214500Y-51800000D03*
X208214500Y-48250000D03*
X189207500Y-54180000D03*
X189207500Y-50630000D03*
X284214500Y-75550000D03*
X284214500Y-72000000D03*
X265214500Y-75550000D03*
X265214500Y-72000000D03*
X246214500Y-70800000D03*
X246214500Y-67250000D03*
X227214500Y-68425000D03*
X227214500Y-64875000D03*
X208214500Y-70800000D03*
X208214500Y-67250000D03*
X189207500Y-73180000D03*
X189207500Y-69630000D03*
X217714500Y-90410000D03*
X217714500Y-86860000D03*
X199664500Y-90425000D03*
X199664500Y-86875000D03*
X196814500Y-90425000D03*
X196814500Y-86875000D03*
X284214500Y-37550000D03*
X284214500Y-34000000D03*
X208214500Y-32800000D03*
X208214500Y-29250000D03*
D29*
X89357500Y-94105000D03*
X89357500Y-92705000D03*
X83857500Y-92705000D03*
X83857500Y-94105000D03*
D33*
X108853233Y-97381047D03*
X109215579Y-96028752D03*
X103902987Y-94605249D03*
X103540641Y-95957544D03*
D31*
X41557500Y-62680000D03*
X41557500Y-65880000D03*
X36657500Y-65880000D03*
X36657500Y-62680000D03*
D29*
X98857500Y-74480000D03*
X98857500Y-73080000D03*
X93357500Y-73080000D03*
X93357500Y-74480000D03*
X279357500Y-41230000D03*
X279357500Y-39830000D03*
X273857500Y-39830000D03*
X273857500Y-41230000D03*
X260357500Y-41230000D03*
X260357500Y-39830000D03*
X254857500Y-39830000D03*
X254857500Y-41230000D03*
X241357500Y-36480000D03*
X241357500Y-35080000D03*
X235857500Y-35080000D03*
X235857500Y-36480000D03*
X222357500Y-34105000D03*
X222357500Y-32705000D03*
X216857500Y-32705000D03*
X216857500Y-34105000D03*
X203357500Y-36480000D03*
X203357500Y-35080000D03*
X197857500Y-35080000D03*
X197857500Y-36480000D03*
X184357500Y-38855000D03*
X184357500Y-37455000D03*
X178857500Y-37455000D03*
X178857500Y-38855000D03*
X279357500Y-60230000D03*
X279357500Y-58830000D03*
X273857500Y-58830000D03*
X273857500Y-60230000D03*
X260357500Y-60230000D03*
X260357500Y-58830000D03*
X254857500Y-58830000D03*
X254857500Y-60230000D03*
X241357500Y-55480000D03*
X241357500Y-54080000D03*
X235857500Y-54080000D03*
X235857500Y-55480000D03*
D23*
X154418500Y-82785000D03*
D22*
X267099500Y-64265500D03*
D23*
X168850500Y-74264000D03*
D34*
X163519661Y-100256570D03*
X164732097Y-99556570D03*
X161982097Y-94793430D03*
X160769661Y-95493430D03*
D25*
X279030500Y-83183000D03*
X278436750Y-83183000D03*
X277843000Y-83183000D03*
X277249250Y-83183000D03*
X276655500Y-83183000D03*
X276061750Y-83183000D03*
X275468000Y-83183000D03*
X274874250Y-83183000D03*
X274280500Y-83183000D03*
X203112500Y-21885000D03*
X202518750Y-21885000D03*
X201925000Y-21885000D03*
X201331250Y-21885000D03*
X200737500Y-21885000D03*
X200143750Y-21885000D03*
X199550000Y-21885000D03*
X198956250Y-21885000D03*
X198362500Y-21885000D03*
X241024500Y-21870000D03*
X240430750Y-21870000D03*
X239837000Y-21870000D03*
X239243250Y-21870000D03*
X238649500Y-21870000D03*
X238055750Y-21870000D03*
X237462000Y-21870000D03*
X236868250Y-21870000D03*
X236274500Y-21870000D03*
X241116500Y-83193000D03*
X240522750Y-83193000D03*
X239929000Y-83193000D03*
X239335250Y-83193000D03*
X238741500Y-83193000D03*
X238147750Y-83193000D03*
X237554000Y-83193000D03*
X236960250Y-83193000D03*
X236366500Y-83193000D03*
D35*
X133307500Y-28630000D03*
X136307500Y-28630000D03*
D36*
X132557500Y-30380000D03*
X135557500Y-30380000D03*
X137057500Y-30380000D03*
D37*
X131157500Y-27530000D03*
X131157500Y-29730000D03*
X138457500Y-29730000D03*
X138457500Y-27530000D03*
D35*
X160507500Y-28660000D03*
X163507500Y-28660000D03*
D36*
X159757500Y-30410000D03*
X162757500Y-30410000D03*
X164257500Y-30410000D03*
D37*
X158357500Y-27560000D03*
X158357500Y-29760000D03*
X165657500Y-29760000D03*
X165657500Y-27560000D03*
M02*
