<?xml version="1.0" standalone="no"?>
 <!DOCTYPE svg PUBLIC "-//W3C//DTD SVG 1.1//EN" 
 "http://www.w3.org/Graphics/SVG/1.1/DTD/svg11.dtd"> 
<svg
  xmlns:svg="http://www.w3.org/2000/svg"
  xmlns="http://www.w3.org/2000/svg"
  xmlns:xlink="http://www.w3.org/1999/xlink"
  version="1.1"
  width="297.002200mm" height="210.007200mm" viewBox="0.000000 0.000000 297.002200 210.007200">
<title>SVG Image created as corne-cherry-F_Cu.svg date 2024/09/23 11:10:56 </title>
  <desc>Image generated by PCBNEW </desc>
<g style="fill:#000000; fill-opacity:1.000000;stroke:#000000; stroke-opacity:1.000000;
stroke-linecap:round; stroke-linejoin:round;"
 transform="translate(0 0) scale(1 1)">
</g>
<g style="fill:none; 
stroke:#000000; stroke-width:1.700000; stroke-opacity:1; 
stroke-linecap:round; stroke-linejoin:round;">
<path d="M132.734500 72.192000
L131.934500 72.192000
" />
<path d="M141.234500 76.392000
L140.434500 76.392000
" />
<path d="M138.234500 76.392000
L137.434500 76.392000
" />
<path d="M134.234500 76.392000
L133.434500 76.392000
" />
</g>
<g style="fill:none; 
stroke:#000000; stroke-width:1.397000; stroke-opacity:1; 
stroke-linecap:round; stroke-linejoin:round;">
<path d="M130.948500 66.837500
L130.948500 67.218500
" />
<path d="M133.488500 66.837500
L133.488500 67.218500
" />
<path d="M136.028500 66.837500
L136.028500 67.218500
" />
<path d="M138.568500 66.837500
L138.568500 67.218500
" />
</g>
<g style="fill:#000000; fill-opacity:1.000000; stroke:none;">
<circle cx="142.424500" cy="69.781000" r="1.000000" /> 
</g>
<g style="fill:#000000; fill-opacity:1.000000; stroke:none;">
<circle cx="142.424500" cy="63.281000" r="1.000000" /> 
</g>
<g style="fill:none; 
stroke:#000000; stroke-width:1.700000; stroke-opacity:1; 
stroke-linecap:round; stroke-linejoin:round;">
<path d="M163.937500 76.370000
L164.737500 76.370000
" />
<path d="M155.437500 72.170000
L156.237500 72.170000
" />
<path d="M158.437500 72.170000
L159.237500 72.170000
" />
<path d="M162.437500 72.170000
L163.237500 72.170000
" />
</g>
<g style="fill:none; 
stroke:#000000; stroke-width:1.397000; stroke-opacity:1; 
stroke-linecap:round; stroke-linejoin:round;">
<path d="M158.177500 66.829500
L158.177500 67.210500
" />
<path d="M160.717500 66.829500
L160.717500 67.210500
" />
<path d="M163.257500 66.829500
L163.257500 67.210500
" />
<path d="M165.797500 66.829500
L165.797500 67.210500
" />
</g>
<g style="fill:#000000; fill-opacity:1.000000; stroke:none;">
<circle cx="154.304500" cy="69.772000" r="1.000000" /> 
</g>
<g style="fill:#000000; fill-opacity:1.000000; stroke:none;">
<circle cx="154.304500" cy="63.272000" r="1.000000" /> 
</g>
<g style="fill:#000000; fill-opacity:1.000000; stroke:none;">
<circle cx="142.423900" cy="31.942000" r="0.762000" /> 
</g>
<g style="fill:#000000; fill-opacity:1.000000; stroke:none;">
<circle cx="142.423900" cy="34.482000" r="0.762000" /> 
</g>
<g style="fill:#000000; fill-opacity:1.000000; stroke:none;">
<circle cx="142.423900" cy="37.022000" r="0.762000" /> 
</g>
<g style="fill:#000000; fill-opacity:1.000000; stroke:none;">
<circle cx="142.423900" cy="39.562000" r="0.762000" /> 
</g>
<g style="fill:#000000; fill-opacity:1.000000; stroke:none;">
<circle cx="142.423900" cy="42.102000" r="0.762000" /> 
</g>
<g style="fill:#000000; fill-opacity:1.000000; stroke:none;">
<circle cx="142.423900" cy="44.642000" r="0.762000" /> 
</g>
<g style="fill:#000000; fill-opacity:1.000000; stroke:none;">
<circle cx="142.423900" cy="47.182000" r="0.762000" /> 
</g>
<g style="fill:#000000; fill-opacity:1.000000; stroke:none;">
<circle cx="142.423900" cy="49.722000" r="0.762000" /> 
</g>
<g style="fill:#000000; fill-opacity:1.000000; stroke:none;">
<circle cx="142.423900" cy="52.262000" r="0.762000" /> 
</g>
<g style="fill:#000000; fill-opacity:1.000000; stroke:none;">
<circle cx="142.423900" cy="54.802000" r="0.762000" /> 
</g>
<g style="fill:#000000; fill-opacity:1.000000; stroke:none;">
<circle cx="142.423900" cy="57.342000" r="0.762000" /> 
</g>
<g style="fill:#000000; fill-opacity:1.000000; stroke:none;">
<circle cx="142.423900" cy="59.882000" r="0.762000" /> 
</g>
<g style="fill:#000000; fill-opacity:1.000000; stroke:none;">
<circle cx="127.203900" cy="59.882000" r="0.762000" /> 
</g>
<g style="fill:#000000; fill-opacity:1.000000; stroke:none;">
<circle cx="127.203900" cy="57.342000" r="0.762000" /> 
</g>
<g style="fill:#000000; fill-opacity:1.000000; stroke:none;">
<circle cx="127.203900" cy="54.802000" r="0.762000" /> 
</g>
<g style="fill:#000000; fill-opacity:1.000000; stroke:none;">
<circle cx="127.203900" cy="52.262000" r="0.762000" /> 
</g>
<g style="fill:#000000; fill-opacity:1.000000; stroke:none;">
<circle cx="127.203900" cy="49.722000" r="0.762000" /> 
</g>
<g style="fill:#000000; fill-opacity:1.000000; stroke:none;">
<circle cx="127.203900" cy="47.182000" r="0.762000" /> 
</g>
<g style="fill:#000000; fill-opacity:1.000000; stroke:none;">
<circle cx="127.203900" cy="44.642000" r="0.762000" /> 
</g>
<g style="fill:#000000; fill-opacity:1.000000; stroke:none;">
<circle cx="127.203900" cy="42.102000" r="0.762000" /> 
</g>
<g style="fill:#000000; fill-opacity:1.000000; stroke:none;">
<circle cx="127.203900" cy="39.562000" r="0.762000" /> 
</g>
<g style="fill:#000000; fill-opacity:1.000000; stroke:none;">
<circle cx="127.203900" cy="37.022000" r="0.762000" /> 
</g>
<g style="fill:#000000; fill-opacity:1.000000; stroke:none;">
<circle cx="127.203900" cy="34.482000" r="0.762000" /> 
</g>
<g style="fill:#000000; fill-opacity:1.000000; stroke:none;">
<circle cx="127.203900" cy="31.942000" r="0.762000" /> 
</g>
<g style="fill:#000000; fill-opacity:1.000000; stroke:none;">
<circle cx="169.598900" cy="31.912000" r="0.762000" /> 
</g>
<g style="fill:#000000; fill-opacity:1.000000; stroke:none;">
<circle cx="169.598900" cy="34.452000" r="0.762000" /> 
</g>
<g style="fill:#000000; fill-opacity:1.000000; stroke:none;">
<circle cx="169.598900" cy="36.992000" r="0.762000" /> 
</g>
<g style="fill:#000000; fill-opacity:1.000000; stroke:none;">
<circle cx="169.598900" cy="39.532000" r="0.762000" /> 
</g>
<g style="fill:#000000; fill-opacity:1.000000; stroke:none;">
<circle cx="169.598900" cy="42.072000" r="0.762000" /> 
</g>
<g style="fill:#000000; fill-opacity:1.000000; stroke:none;">
<circle cx="169.598900" cy="44.612000" r="0.762000" /> 
</g>
<g style="fill:#000000; fill-opacity:1.000000; stroke:none;">
<circle cx="169.598900" cy="47.152000" r="0.762000" /> 
</g>
<g style="fill:#000000; fill-opacity:1.000000; stroke:none;">
<circle cx="169.598900" cy="49.692000" r="0.762000" /> 
</g>
<g style="fill:#000000; fill-opacity:1.000000; stroke:none;">
<circle cx="169.598900" cy="52.232000" r="0.762000" /> 
</g>
<g style="fill:#000000; fill-opacity:1.000000; stroke:none;">
<circle cx="169.598900" cy="54.772000" r="0.762000" /> 
</g>
<g style="fill:#000000; fill-opacity:1.000000; stroke:none;">
<circle cx="169.598900" cy="57.312000" r="0.762000" /> 
</g>
<g style="fill:#000000; fill-opacity:1.000000; stroke:none;">
<circle cx="169.598900" cy="59.852000" r="0.762000" /> 
</g>
<g style="fill:#000000; fill-opacity:1.000000; stroke:none;">
<circle cx="154.378900" cy="59.852000" r="0.762000" /> 
</g>
<g style="fill:#000000; fill-opacity:1.000000; stroke:none;">
<circle cx="154.378900" cy="57.312000" r="0.762000" /> 
</g>
<g style="fill:#000000; fill-opacity:1.000000; stroke:none;">
<circle cx="154.378900" cy="54.772000" r="0.762000" /> 
</g>
<g style="fill:#000000; fill-opacity:1.000000; stroke:none;">
<circle cx="154.378900" cy="52.232000" r="0.762000" /> 
</g>
<g style="fill:#000000; fill-opacity:1.000000; stroke:none;">
<circle cx="154.378900" cy="49.692000" r="0.762000" /> 
</g>
<g style="fill:#000000; fill-opacity:1.000000; stroke:none;">
<circle cx="154.378900" cy="47.152000" r="0.762000" /> 
</g>
<g style="fill:#000000; fill-opacity:1.000000; stroke:none;">
<circle cx="154.378900" cy="44.612000" r="0.762000" /> 
</g>
<g style="fill:#000000; fill-opacity:1.000000; stroke:none;">
<circle cx="154.378900" cy="42.072000" r="0.762000" /> 
</g>
<g style="fill:#000000; fill-opacity:1.000000; stroke:none;">
<circle cx="154.378900" cy="39.532000" r="0.762000" /> 
</g>
<g style="fill:#000000; fill-opacity:1.000000; stroke:none;">
<circle cx="154.378900" cy="36.992000" r="0.762000" /> 
</g>
<g style="fill:#000000; fill-opacity:1.000000; stroke:none;">
<circle cx="154.378900" cy="34.452000" r="0.762000" /> 
</g>
<g style="fill:#000000; fill-opacity:1.000000; stroke:none;">
<circle cx="154.378900" cy="31.912000" r="0.762000" /> 
<path style="fill:#000000; fill-opacity:1.000000; stroke:none;fill-rule:evenodd;"
d="M 138.459500,73.792000
138.555171,73.811030
138.636277,73.865223
138.690470,73.946329
138.709500,74.042000
138.709500,74.742000
138.690470,74.837671
138.636277,74.918777
138.555171,74.972970
138.459500,74.992000
137.209500,74.992000
137.113829,74.972970
137.032723,74.918777
136.978530,74.837671
136.959500,74.742000
136.959500,74.042000
136.978530,73.946329
137.032723,73.865223
137.113829,73.811030
137.209500,73.792000
Z" /> 
<path style="fill:#000000; fill-opacity:1.000000; stroke:none;fill-rule:evenodd;"
d="M 158.212500,74.770000
158.116829,74.750970
158.035723,74.696777
157.981530,74.615671
157.962500,74.520000
157.962500,73.820000
157.981530,73.724329
158.035723,73.643223
158.116829,73.589030
158.212500,73.570000
159.462500,73.570000
159.558171,73.589030
159.639277,73.643223
159.693470,73.724329
159.712500,73.820000
159.712500,74.520000
159.693470,74.615671
159.639277,74.696777
159.558171,74.750970
159.462500,74.770000
Z" /> 
</g>
<g style="fill:#000000; fill-opacity:1.000000; stroke:none;">
<circle cx="141.597500" cy="30.505000" r="0.300000" /> 
</g>
<g style="fill:#000000; fill-opacity:1.000000; stroke:none;">
<circle cx="128.237500" cy="30.505000" r="0.300000" /> 
</g>
<g style="fill:#000000; fill-opacity:1.000000; stroke:none;">
<circle cx="51.107500" cy="26.505000" r="0.300000" /> 
</g>
<g style="fill:#000000; fill-opacity:1.000000; stroke:none;">
<circle cx="50.307500" cy="35.105000" r="0.300000" /> 
</g>
<g style="fill:#000000; fill-opacity:1.000000; stroke:none;">
<circle cx="123.607500" cy="54.205000" r="0.300000" /> 
</g>
<g style="fill:#000000; fill-opacity:1.000000; stroke:none;">
<circle cx="124.607500" cy="69.005000" r="0.300000" /> 
</g>
<g style="fill:#000000; fill-opacity:1.000000; stroke:none;">
<circle cx="69.382500" cy="68.405000" r="0.300000" /> 
</g>
<g style="fill:#000000; fill-opacity:1.000000; stroke:none;">
<circle cx="69.382500" cy="61.305000" r="0.300000" /> 
</g>
<g style="fill:#000000; fill-opacity:1.000000; stroke:none;">
<circle cx="124.807500" cy="70.805000" r="0.300000" /> 
</g>
<g style="fill:#000000; fill-opacity:1.000000; stroke:none;">
<circle cx="126.493737" cy="86.382353" r="0.300000" /> 
</g>
<g style="fill:#000000; fill-opacity:1.000000; stroke:none;">
<circle cx="126.297500" cy="77.305000" r="0.300000" /> 
</g>
<g style="fill:#000000; fill-opacity:1.000000; stroke:none;">
<circle cx="33.032500" cy="38.605000" r="0.300000" /> 
</g>
<g style="fill:#000000; fill-opacity:1.000000; stroke:none;">
<circle cx="108.632500" cy="74.405000" r="0.300000" /> 
</g>
<g style="fill:#000000; fill-opacity:1.000000; stroke:none;">
<circle cx="111.507500" cy="43.705000" r="0.300000" /> 
</g>
<g style="fill:#000000; fill-opacity:1.000000; stroke:none;">
<circle cx="111.407500" cy="81.805000" r="0.300000" /> 
</g>
<g style="fill:#000000; fill-opacity:1.000000; stroke:none;">
<circle cx="118.907500" cy="55.105000" r="0.300000" /> 
</g>
<g style="fill:#000000; fill-opacity:1.000000; stroke:none;">
<circle cx="73.507500" cy="38.905000" r="0.300000" /> 
</g>
<g style="fill:#000000; fill-opacity:1.000000; stroke:none;">
<circle cx="35.507500" cy="65.105000" r="0.300000" /> 
</g>
<g style="fill:#000000; fill-opacity:1.000000; stroke:none;">
<circle cx="108.862510" cy="36.393716" r="0.300000" /> 
</g>
<g style="fill:#000000; fill-opacity:1.000000; stroke:none;">
<circle cx="73.507500" cy="76.804998" r="0.300000" /> 
</g>
<g style="fill:#000000; fill-opacity:1.000000; stroke:none;">
<circle cx="124.807500" cy="36.305000" r="0.300000" /> 
</g>
<g style="fill:#000000; fill-opacity:1.000000; stroke:none;">
<circle cx="32.932500" cy="57.805000" r="0.300000" /> 
</g>
<g style="fill:#000000; fill-opacity:1.000000; stroke:none;">
<circle cx="70.632500" cy="31.605000" r="0.300000" /> 
</g>
<g style="fill:#000000; fill-opacity:1.000000; stroke:none;">
<circle cx="135.547500" cy="78.960000" r="0.300000" /> 
</g>
<g style="fill:#000000; fill-opacity:1.000000; stroke:none;">
<circle cx="70.632500" cy="69.705000" r="0.300000" /> 
</g>
<g style="fill:#000000; fill-opacity:1.000000; stroke:none;">
<circle cx="35.407500" cy="46.005000" r="0.300000" /> 
</g>
<g style="fill:#000000; fill-opacity:1.000000; stroke:none;">
<circle cx="117.907500" cy="59.105000" r="0.300000" /> 
</g>
<g style="fill:#000000; fill-opacity:1.000000; stroke:none;">
<circle cx="124.957510" cy="40.905000" r="0.300000" /> 
</g>
<g style="fill:#000000; fill-opacity:1.000000; stroke:none;">
<circle cx="13.007500" cy="66.705000" r="0.300000" /> 
</g>
<g style="fill:#000000; fill-opacity:1.000000; stroke:none;">
<circle cx="13.007500" cy="50.205000" r="0.300000" /> 
</g>
<g style="fill:#000000; fill-opacity:1.000000; stroke:none;">
<circle cx="13.007500" cy="54.205000" r="0.300000" /> 
</g>
<g style="fill:#000000; fill-opacity:1.000000; stroke:none;">
<circle cx="13.007500" cy="69.205000" r="0.300000" /> 
</g>
<g style="fill:#000000; fill-opacity:1.000000; stroke:none;">
<circle cx="13.007500" cy="35.205000" r="0.300000" /> 
</g>
<g style="fill:#000000; fill-opacity:1.000000; stroke:none;">
<circle cx="32.007500" cy="35.205000" r="0.300000" /> 
</g>
<g style="fill:#000000; fill-opacity:1.000000; stroke:none;">
<circle cx="32.107500" cy="69.205000" r="0.300000" /> 
</g>
<g style="fill:#000000; fill-opacity:1.000000; stroke:none;">
<circle cx="31.964840" cy="50.194907" r="0.300000" /> 
</g>
<g style="fill:#000000; fill-opacity:1.000000; stroke:none;">
<circle cx="31.707500" cy="54.405000" r="0.300000" /> 
</g>
<g style="fill:#000000; fill-opacity:1.000000; stroke:none;">
<circle cx="32.796949" cy="65.894449" r="0.300000" /> 
</g>
<g style="fill:#000000; fill-opacity:1.000000; stroke:none;">
<circle cx="51.007500" cy="45.505000" r="0.300000" /> 
</g>
<g style="fill:#000000; fill-opacity:1.000000; stroke:none;">
<circle cx="51.007500" cy="30.505000" r="0.300000" /> 
</g>
<g style="fill:#000000; fill-opacity:1.000000; stroke:none;">
<circle cx="51.007500" cy="64.505000" r="0.300000" /> 
</g>
<g style="fill:#000000; fill-opacity:1.000000; stroke:none;">
<circle cx="51.007500" cy="49.505000" r="0.300000" /> 
</g>
<g style="fill:#000000; fill-opacity:1.000000; stroke:none;">
<circle cx="52.577078" cy="61.174578" r="0.300000" /> 
</g>
<g style="fill:#000000; fill-opacity:1.000000; stroke:none;">
<circle cx="70.007500" cy="47.105000" r="0.300000" /> 
</g>
<g style="fill:#000000; fill-opacity:1.000000; stroke:none;">
<circle cx="70.007500" cy="43.105000" r="0.300000" /> 
</g>
<g style="fill:#000000; fill-opacity:1.000000; stroke:none;">
<circle cx="70.007500" cy="65.705000" r="0.300000" /> 
</g>
<g style="fill:#000000; fill-opacity:1.000000; stroke:none;">
<circle cx="70.007500" cy="62.105000" r="0.300000" /> 
</g>
<g style="fill:#000000; fill-opacity:1.000000; stroke:none;">
<circle cx="70.007500" cy="28.105000" r="0.300000" /> 
</g>
<g style="fill:#000000; fill-opacity:1.000000; stroke:none;">
<circle cx="79.507500" cy="84.305000" r="0.300000" /> 
</g>
<g style="fill:#000000; fill-opacity:1.000000; stroke:none;">
<circle cx="70.407500" cy="59.705000" r="0.300000" /> 
</g>
<g style="fill:#000000; fill-opacity:1.000000; stroke:none;">
<circle cx="89.007500" cy="64.505000" r="0.300000" /> 
</g>
<g style="fill:#000000; fill-opacity:1.000000; stroke:none;">
<circle cx="89.407500" cy="60.305000" r="0.300000" /> 
</g>
<g style="fill:#000000; fill-opacity:1.000000; stroke:none;">
<circle cx="100.007500" cy="85.205000" r="0.300000" /> 
</g>
<g style="fill:#000000; fill-opacity:1.000000; stroke:none;">
<circle cx="89.007500" cy="49.505000" r="0.300000" /> 
</g>
<g style="fill:#000000; fill-opacity:1.000000; stroke:none;">
<circle cx="89.007500" cy="30.505000" r="0.300000" /> 
</g>
<g style="fill:#000000; fill-opacity:1.000000; stroke:none;">
<circle cx="89.007500" cy="45.505000" r="0.300000" /> 
</g>
<g style="fill:#000000; fill-opacity:1.000000; stroke:none;">
<circle cx="89.007500" cy="68.505000" r="0.300000" /> 
</g>
<g style="fill:#000000; fill-opacity:1.000000; stroke:none;">
<circle cx="108.007500" cy="51.805000" r="0.300000" /> 
</g>
<g style="fill:#000000; fill-opacity:1.000000; stroke:none;">
<circle cx="122.607500" cy="99.005000" r="0.300000" /> 
</g>
<g style="fill:#000000; fill-opacity:1.000000; stroke:none;">
<circle cx="108.007500" cy="70.805000" r="0.300000" /> 
</g>
<g style="fill:#000000; fill-opacity:1.000000; stroke:none;">
<circle cx="108.007500" cy="32.805000" r="0.300000" /> 
</g>
<g style="fill:#000000; fill-opacity:1.000000; stroke:none;">
<circle cx="108.007500" cy="66.805000" r="0.300000" /> 
</g>
<g style="fill:#000000; fill-opacity:1.000000; stroke:none;">
<circle cx="108.007500" cy="47.905000" r="0.300000" /> 
</g>
<g style="fill:#000000; fill-opacity:1.000000; stroke:none;">
<circle cx="108.407504" cy="62.805000" r="0.300000" /> 
</g>
<g style="fill:#000000; fill-opacity:1.000000; stroke:none;">
<circle cx="127.832500" cy="70.265000" r="0.300000" /> 
</g>
<g style="fill:#000000; fill-opacity:1.000000; stroke:none;">
<circle cx="173.357500" cy="46.265000" r="0.300000" /> 
</g>
<g style="fill:#000000; fill-opacity:1.000000; stroke:none;">
<circle cx="171.063762" cy="31.389024" r="0.300000" /> 
</g>
<g style="fill:#000000; fill-opacity:1.000000; stroke:none;">
<circle cx="175.232500" cy="62.500000" r="0.300000" /> 
</g>
<g style="fill:#000000; fill-opacity:1.000000; stroke:none;">
<circle cx="175.232500" cy="58.415010" r="0.300000" /> 
</g>
<g style="fill:#000000; fill-opacity:1.000000; stroke:none;">
<circle cx="172.537500" cy="58.715000" r="0.300000" /> 
</g>
<g style="fill:#000000; fill-opacity:1.000000; stroke:none;">
<circle cx="167.110558" cy="85.628058" r="0.300000" /> 
</g>
<g style="fill:#000000; fill-opacity:1.000000; stroke:none;">
<circle cx="173.357500" cy="41.015000" r="0.300000" /> 
</g>
<g style="fill:#000000; fill-opacity:1.000000; stroke:none;">
<circle cx="269.617500" cy="54.555000" r="0.300000" /> 
</g>
<g style="fill:#000000; fill-opacity:1.000000; stroke:none;">
<circle cx="269.547500" cy="66.550000" r="0.300000" /> 
</g>
<g style="fill:#000000; fill-opacity:1.000000; stroke:none;">
<circle cx="269.592510" cy="50.205000" r="0.300000" /> 
</g>
<g style="fill:#000000; fill-opacity:1.000000; stroke:none;">
<circle cx="269.607500" cy="35.205000" r="0.300000" /> 
</g>
<g style="fill:#000000; fill-opacity:1.000000; stroke:none;">
<circle cx="269.507500" cy="69.305000" r="0.300000" /> 
</g>
<g style="fill:#000000; fill-opacity:1.000000; stroke:none;">
<circle cx="250.507500" cy="35.105000" r="0.300000" /> 
</g>
<g style="fill:#000000; fill-opacity:1.000000; stroke:none;">
<circle cx="250.507500" cy="69.205000" r="0.300000" /> 
</g>
<g style="fill:#000000; fill-opacity:1.000000; stroke:none;">
<circle cx="250.507500" cy="54.205000" r="0.300000" /> 
</g>
<g style="fill:#000000; fill-opacity:1.000000; stroke:none;">
<circle cx="250.507500" cy="50.305000" r="0.300000" /> 
</g>
<g style="fill:#000000; fill-opacity:1.000000; stroke:none;">
<circle cx="249.997500" cy="64.100010" r="0.300000" /> 
</g>
<g style="fill:#000000; fill-opacity:1.000000; stroke:none;">
<circle cx="231.607500" cy="49.505000" r="0.300000" /> 
</g>
<g style="fill:#000000; fill-opacity:1.000000; stroke:none;">
<circle cx="231.507500" cy="45.505000" r="0.300000" /> 
</g>
<g style="fill:#000000; fill-opacity:1.000000; stroke:none;">
<circle cx="231.234449" cy="58.513051" r="0.300000" /> 
</g>
<g style="fill:#000000; fill-opacity:1.000000; stroke:none;">
<circle cx="231.507500" cy="30.305000" r="0.300000" /> 
</g>
<g style="fill:#000000; fill-opacity:1.000000; stroke:none;">
<circle cx="231.607500" cy="64.505000" r="0.300000" /> 
</g>
<g style="fill:#000000; fill-opacity:1.000000; stroke:none;">
<circle cx="212.507500" cy="43.105000" r="0.300000" /> 
</g>
<g style="fill:#000000; fill-opacity:1.000000; stroke:none;">
<circle cx="212.557500" cy="65.985000" r="0.300000" /> 
</g>
<g style="fill:#000000; fill-opacity:1.000000; stroke:none;">
<circle cx="212.507500" cy="47.105000" r="0.300000" /> 
</g>
<g style="fill:#000000; fill-opacity:1.000000; stroke:none;">
<circle cx="203.087500" cy="84.335000" r="0.300000" /> 
</g>
<g style="fill:#000000; fill-opacity:1.000000; stroke:none;">
<circle cx="212.507500" cy="28.005000" r="0.300000" /> 
</g>
<g style="fill:#000000; fill-opacity:1.000000; stroke:none;">
<circle cx="212.507500" cy="62.205000" r="0.300000" /> 
</g>
<g style="fill:#000000; fill-opacity:1.000000; stroke:none;">
<circle cx="212.107500" cy="59.020000" r="0.300000" /> 
</g>
<g style="fill:#000000; fill-opacity:1.000000; stroke:none;">
<circle cx="193.507500" cy="64.505000" r="0.300000" /> 
</g>
<g style="fill:#000000; fill-opacity:1.000000; stroke:none;">
<circle cx="193.137500" cy="61.875000" r="0.300000" /> 
</g>
<g style="fill:#000000; fill-opacity:1.000000; stroke:none;">
<circle cx="193.507500" cy="30.405000" r="0.300000" /> 
</g>
<g style="fill:#000000; fill-opacity:1.000000; stroke:none;">
<circle cx="193.507500" cy="49.305000" r="0.300000" /> 
</g>
<g style="fill:#000000; fill-opacity:1.000000; stroke:none;">
<circle cx="193.507500" cy="45.505000" r="0.300000" /> 
</g>
<g style="fill:#000000; fill-opacity:1.000000; stroke:none;">
<circle cx="193.517500" cy="68.325000" r="0.300000" /> 
</g>
<g style="fill:#000000; fill-opacity:1.000000; stroke:none;">
<circle cx="181.187500" cy="88.895000" r="0.300000" /> 
</g>
<g style="fill:#000000; fill-opacity:1.000000; stroke:none;">
<circle cx="174.417500" cy="70.675000" r="0.300000" /> 
</g>
<g style="fill:#000000; fill-opacity:1.000000; stroke:none;">
<circle cx="174.507500" cy="47.805000" r="0.300000" /> 
</g>
<g style="fill:#000000; fill-opacity:1.000000; stroke:none;">
<circle cx="166.887500" cy="86.675000" r="0.300000" /> 
</g>
<g style="fill:#000000; fill-opacity:1.000000; stroke:none;">
<circle cx="174.507500" cy="32.805000" r="0.300000" /> 
</g>
<g style="fill:#000000; fill-opacity:1.000000; stroke:none;">
<circle cx="174.607500" cy="51.905000" r="0.300000" /> 
</g>
<g style="fill:#000000; fill-opacity:1.000000; stroke:none;">
<circle cx="174.297500" cy="63.015000" r="0.300000" /> 
</g>
<g style="fill:#000000; fill-opacity:1.000000; stroke:none;">
<circle cx="174.507500" cy="66.905000" r="0.300000" /> 
</g>
<g style="fill:#000000; fill-opacity:1.000000; stroke:none;">
<circle cx="171.787500" cy="60.895000" r="0.300000" /> 
</g>
<g style="fill:#000000; fill-opacity:1.000000; stroke:none;">
<circle cx="171.857490" cy="40.305000" r="0.300000" /> 
</g>
<g style="fill:#000000; fill-opacity:1.000000; stroke:none;">
<circle cx="177.777500" cy="36.645000" r="0.300000" /> 
</g>
<g style="fill:#000000; fill-opacity:1.000000; stroke:none;">
<circle cx="161.807500" cy="77.705000" r="0.300000" /> 
</g>
<g style="fill:#000000; fill-opacity:1.000000; stroke:none;">
<circle cx="177.037500" cy="82.385000" r="0.300000" /> 
</g>
<g style="fill:#000000; fill-opacity:1.000000; stroke:none;">
<circle cx="253.757500" cy="38.945000" r="0.300000" /> 
</g>
<g style="fill:#000000; fill-opacity:1.000000; stroke:none;">
<circle cx="215.217502" cy="77.775000" r="0.300000" /> 
</g>
<g style="fill:#000000; fill-opacity:1.000000; stroke:none;">
<circle cx="177.253436" cy="44.469389" r="0.300000" /> 
</g>
<g style="fill:#000000; fill-opacity:1.000000; stroke:none;">
<circle cx="253.172490" cy="65.734017" r="0.300000" /> 
</g>
<g style="fill:#000000; fill-opacity:1.000000; stroke:none;">
<circle cx="215.152490" cy="39.708861" r="0.300000" /> 
</g>
<g style="fill:#000000; fill-opacity:1.000000; stroke:none;">
<circle cx="176.987500" cy="74.685000" r="0.300000" /> 
</g>
<g style="fill:#000000; fill-opacity:1.000000; stroke:none;">
<circle cx="253.577500" cy="58.005000" r="0.300000" /> 
</g>
<g style="fill:#000000; fill-opacity:1.000000; stroke:none;">
<circle cx="171.934500" cy="36.205000" r="0.300000" /> 
</g>
<g style="fill:#000000; fill-opacity:1.000000; stroke:none;">
<circle cx="215.257500" cy="69.915000" r="0.300000" /> 
</g>
<g style="fill:#000000; fill-opacity:1.000000; stroke:none;">
<circle cx="253.314993" cy="46.956653" r="0.300000" /> 
</g>
<g style="fill:#000000; fill-opacity:1.000000; stroke:none;">
<circle cx="172.707500" cy="52.045000" r="0.300000" /> 
</g>
<g style="fill:#000000; fill-opacity:1.000000; stroke:none;">
<circle cx="215.297500" cy="32.055000" r="0.300000" /> 
</g>
<g style="fill:#000000; fill-opacity:1.000000; stroke:none;">
<circle cx="34.727500" cy="62.720000" r="0.300000" /> 
</g>
<g style="fill:#000000; fill-opacity:1.000000; stroke:none;">
<circle cx="33.107500" cy="48.705000" r="0.300000" /> 
</g>
<g style="fill:#000000; fill-opacity:1.000000; stroke:none;">
<circle cx="71.007500" cy="32.505000" r="0.300000" /> 
</g>
<g style="fill:#000000; fill-opacity:1.000000; stroke:none;">
<circle cx="62.107506" cy="37.954990" r="0.300000" /> 
</g>
<g style="fill:#000000; fill-opacity:1.000000; stroke:none;">
<circle cx="62.387500" cy="36.246952" r="0.300000" /> 
</g>
<g style="fill:#000000; fill-opacity:1.000000; stroke:none;">
<circle cx="80.807500" cy="32.605000" r="0.300000" /> 
</g>
<g style="fill:#000000; fill-opacity:1.000000; stroke:none;">
<circle cx="100.597500" cy="35.880000" r="0.300000" /> 
</g>
<g style="fill:#000000; fill-opacity:1.000000; stroke:none;">
<circle cx="99.882500" cy="37.455000" r="0.300000" /> 
</g>
<g style="fill:#000000; fill-opacity:1.000000; stroke:none;">
<circle cx="109.562521" cy="36.805000" r="0.300000" /> 
</g>
<g style="fill:#000000; fill-opacity:1.000000; stroke:none;">
<circle cx="118.807500" cy="37.405000" r="0.300000" /> 
</g>
<g style="fill:#000000; fill-opacity:1.000000; stroke:none;">
<circle cx="24.007500" cy="62.505000" r="0.300000" /> 
</g>
<g style="fill:#000000; fill-opacity:1.000000; stroke:none;">
<circle cx="24.107500" cy="40.105000" r="0.300000" /> 
</g>
<g style="fill:#000000; fill-opacity:1.000000; stroke:none;">
<circle cx="35.507500" cy="41.205000" r="0.300000" /> 
</g>
<g style="fill:#000000; fill-opacity:1.000000; stroke:none;">
<circle cx="42.707500" cy="58.705000" r="0.300000" /> 
</g>
<g style="fill:#000000; fill-opacity:1.000000; stroke:none;">
<circle cx="60.707500" cy="56.655000" r="0.300000" /> 
</g>
<g style="fill:#000000; fill-opacity:1.000000; stroke:none;">
<circle cx="61.907500" cy="35.305000" r="0.300000" /> 
</g>
<g style="fill:#000000; fill-opacity:1.000000; stroke:none;">
<circle cx="73.307500" cy="34.105000" r="0.300000" /> 
</g>
<g style="fill:#000000; fill-opacity:1.000000; stroke:none;">
<circle cx="80.807500" cy="51.705000" r="0.300000" /> 
</g>
<g style="fill:#000000; fill-opacity:1.000000; stroke:none;">
<circle cx="100.443699" cy="35.003426" r="0.300000" /> 
</g>
<g style="fill:#000000; fill-opacity:1.000000; stroke:none;">
<circle cx="98.607500" cy="56.755000" r="0.300000" /> 
</g>
<g style="fill:#000000; fill-opacity:1.000000; stroke:none;">
<circle cx="111.407500" cy="38.905000" r="0.300000" /> 
</g>
<g style="fill:#000000; fill-opacity:1.000000; stroke:none;">
<circle cx="118.607500" cy="56.405000" r="0.300000" /> 
</g>
<g style="fill:#000000; fill-opacity:1.000000; stroke:none;">
<circle cx="24.307500" cy="59.005000" r="0.300000" /> 
</g>
<g style="fill:#000000; fill-opacity:1.000000; stroke:none;">
<circle cx="23.607500" cy="81.405000" r="0.300000" /> 
</g>
<g style="fill:#000000; fill-opacity:1.000000; stroke:none;">
<circle cx="42.707500" cy="77.705000" r="0.300000" /> 
</g>
<g style="fill:#000000; fill-opacity:1.000000; stroke:none;">
<circle cx="35.407500" cy="60.405000" r="0.300000" /> 
</g>
<g style="fill:#000000; fill-opacity:1.000000; stroke:none;">
<circle cx="73.407500" cy="53.105000" r="0.300000" /> 
</g>
<g style="fill:#000000; fill-opacity:1.000000; stroke:none;">
<circle cx="80.807500" cy="70.705000" r="0.300000" /> 
</g>
<g style="fill:#000000; fill-opacity:1.000000; stroke:none;">
<circle cx="100.857500" cy="54.905000" r="0.300000" /> 
</g>
<g style="fill:#000000; fill-opacity:1.000000; stroke:none;">
<circle cx="98.807500" cy="75.705000" r="0.300000" /> 
</g>
<g style="fill:#000000; fill-opacity:1.000000; stroke:none;">
<circle cx="111.307500" cy="57.805000" r="0.300000" /> 
</g>
<g style="fill:#000000; fill-opacity:1.000000; stroke:none;">
<circle cx="118.807500" cy="75.405000" r="0.300000" /> 
</g>
<g style="fill:#000000; fill-opacity:1.000000; stroke:none;">
<circle cx="90.307500" cy="92.705000" r="0.300000" /> 
</g>
<g style="fill:#000000; fill-opacity:1.000000; stroke:none;">
<circle cx="73.407500" cy="72.105000" r="0.300000" /> 
</g>
<g style="fill:#000000; fill-opacity:1.000000; stroke:none;">
<circle cx="135.200692" cy="94.111767" r="0.300000" /> 
</g>
<g style="fill:#000000; fill-opacity:1.000000; stroke:none;">
<circle cx="111.407500" cy="76.905000" r="0.300000" /> 
</g>
<g style="fill:#000000; fill-opacity:1.000000; stroke:none;">
<circle cx="82.907500" cy="94.105000" r="0.300000" /> 
</g>
<g style="fill:#000000; fill-opacity:1.000000; stroke:none;">
<circle cx="110.207500" cy="96.705000" r="0.300000" /> 
</g>
<g style="fill:#000000; fill-opacity:1.000000; stroke:none;">
<circle cx="132.707500" cy="101.105000" r="0.300000" /> 
</g>
<g style="fill:#000000; fill-opacity:1.000000; stroke:none;">
<circle cx="119.007500" cy="82.605000" r="0.300000" /> 
</g>
<g style="fill:#000000; fill-opacity:1.000000; stroke:none;">
<circle cx="269.261664" cy="62.382960" r="0.300000" /> 
</g>
<g style="fill:#000000; fill-opacity:1.000000; stroke:none;">
<circle cx="269.282500" cy="47.215000" r="0.300000" /> 
</g>
<g style="fill:#000000; fill-opacity:1.000000; stroke:none;">
<circle cx="272.977500" cy="60.175000" r="0.300000" /> 
</g>
<g style="fill:#000000; fill-opacity:1.000000; stroke:none;">
<circle cx="280.317500" cy="39.965000" r="0.300000" /> 
</g>
<g style="fill:#000000; fill-opacity:1.000000; stroke:none;">
<circle cx="254.167500" cy="41.355002" r="0.300000" /> 
</g>
<g style="fill:#000000; fill-opacity:1.000000; stroke:none;">
<circle cx="261.307500" cy="58.745000" r="0.300000" /> 
</g>
<g style="fill:#000000; fill-opacity:1.000000; stroke:none;">
<circle cx="216.047500" cy="34.105000" r="0.300000" /> 
</g>
<g style="fill:#000000; fill-opacity:1.000000; stroke:none;">
<circle cx="223.232169" cy="51.890331" r="0.300000" /> 
</g>
<g style="fill:#000000; fill-opacity:1.000000; stroke:none;">
<circle cx="196.907500" cy="55.365000" r="0.300000" /> 
</g>
<g style="fill:#000000; fill-opacity:1.000000; stroke:none;">
<circle cx="204.437500" cy="35.185000" r="0.300000" /> 
</g>
<g style="fill:#000000; fill-opacity:1.000000; stroke:none;">
<circle cx="178.037510" cy="38.905000" r="0.300000" /> 
</g>
<g style="fill:#000000; fill-opacity:1.000000; stroke:none;">
<circle cx="185.337500" cy="56.385000" r="0.300000" /> 
</g>
<g style="fill:#000000; fill-opacity:1.000000; stroke:none;">
<circle cx="70.707500" cy="68.405000" r="0.300000" /> 
</g>
<g style="fill:#000000; fill-opacity:1.000000; stroke:none;">
<circle cx="72.757500" cy="74.440000" r="0.300000" /> 
</g>
<g style="fill:#000000; fill-opacity:1.000000; stroke:none;">
<circle cx="24.402733" cy="41.609990" r="0.300000" /> 
</g>
<g style="fill:#000000; fill-opacity:1.000000; stroke:none;">
<circle cx="42.907500" cy="39.705000" r="0.300000" /> 
</g>
<g style="fill:#000000; fill-opacity:1.000000; stroke:none;">
<circle cx="33.807500" cy="39.205000" r="0.300000" /> 
</g>
<g style="fill:#000000; fill-opacity:1.000000; stroke:none;">
<circle cx="24.307500" cy="43.570010" r="0.300000" /> 
</g>
<g style="fill:#000000; fill-opacity:1.000000; stroke:none;">
<circle cx="62.232510" cy="54.605000" r="0.300000" /> 
</g>
<g style="fill:#000000; fill-opacity:1.000000; stroke:none;">
<circle cx="60.677169" cy="75.535331" r="0.300000" /> 
</g>
<g style="fill:#000000; fill-opacity:1.000000; stroke:none;">
<circle cx="35.107500" cy="79.305000" r="0.300000" /> 
</g>
<g style="fill:#000000; fill-opacity:1.000000; stroke:none;">
<circle cx="37.107500" cy="81.355000" r="0.300000" /> 
</g>
<g style="fill:#000000; fill-opacity:1.000000; stroke:none;">
<circle cx="61.907500" cy="77.205000" r="0.300000" /> 
</g>
<g style="fill:#000000; fill-opacity:1.000000; stroke:none;">
<circle cx="62.032510" cy="73.205000" r="0.300000" /> 
</g>
<g style="fill:#000000; fill-opacity:1.000000; stroke:none;">
<circle cx="102.707500" cy="95.605000" r="0.300000" /> 
</g>
<g style="fill:#000000; fill-opacity:1.000000; stroke:none;">
<circle cx="99.907500" cy="73.305000" r="0.300000" /> 
</g>
<g style="fill:#000000; fill-opacity:1.000000; stroke:none;">
<circle cx="214.327500" cy="75.765000" r="0.300000" /> 
</g>
<g style="fill:#000000; fill-opacity:1.000000; stroke:none;">
<circle cx="213.147500" cy="58.980002" r="0.300000" /> 
</g>
<g style="fill:#000000; fill-opacity:1.000000; stroke:none;">
<circle cx="160.337500" cy="94.635000" r="0.300000" /> 
</g>
<g style="fill:#000000; fill-opacity:1.000000; stroke:none;">
<circle cx="177.042490" cy="83.655000" r="0.300000" /> 
</g>
<g style="fill:#000000; fill-opacity:1.000000; stroke:none;">
<circle cx="273.117500" cy="79.255000" r="0.300000" /> 
</g>
<g style="fill:#000000; fill-opacity:1.000000; stroke:none;">
<circle cx="280.367500" cy="58.895000" r="0.300000" /> 
</g>
<g style="fill:#000000; fill-opacity:1.000000; stroke:none;">
<circle cx="254.007500" cy="60.425000" r="0.300000" /> 
</g>
<g style="fill:#000000; fill-opacity:1.000000; stroke:none;">
<circle cx="261.327500" cy="77.755000" r="0.300000" /> 
</g>
<g style="fill:#000000; fill-opacity:1.000000; stroke:none;">
<circle cx="242.277500" cy="54.295000" r="0.300000" /> 
</g>
<g style="fill:#000000; fill-opacity:1.000000; stroke:none;">
<circle cx="234.907500" cy="74.355000" r="0.300000" /> 
</g>
<g style="fill:#000000; fill-opacity:1.000000; stroke:none;">
<circle cx="223.267169" cy="70.725331" r="0.300000" /> 
</g>
<g style="fill:#000000; fill-opacity:1.000000; stroke:none;">
<circle cx="215.897500" cy="53.155000" r="0.300000" /> 
</g>
<g style="fill:#000000; fill-opacity:1.000000; stroke:none;">
<circle cx="196.857500" cy="74.365000" r="0.300000" /> 
</g>
<g style="fill:#000000; fill-opacity:1.000000; stroke:none;">
<circle cx="204.397500" cy="54.145000" r="0.300000" /> 
</g>
<g style="fill:#000000; fill-opacity:1.000000; stroke:none;">
<circle cx="185.367500" cy="75.525000" r="0.300000" /> 
</g>
<g style="fill:#000000; fill-opacity:1.000000; stroke:none;">
<circle cx="177.937500" cy="57.865000" r="0.300000" /> 
</g>
<g style="fill:#000000; fill-opacity:1.000000; stroke:none;">
<circle cx="213.767500" cy="92.735000" r="0.300000" /> 
</g>
<g style="fill:#000000; fill-opacity:1.000000; stroke:none;">
<circle cx="216.007500" cy="72.135000" r="0.300000" /> 
</g>
<g style="fill:#000000; fill-opacity:1.000000; stroke:none;">
<circle cx="204.327500" cy="73.235000" r="0.300000" /> 
</g>
<g style="fill:#000000; fill-opacity:1.000000; stroke:none;">
<circle cx="186.947500" cy="97.485000" r="0.300000" /> 
</g>
<g style="fill:#000000; fill-opacity:1.000000; stroke:none;">
<circle cx="177.707500" cy="77.035000" r="0.300000" /> 
</g>
<g style="fill:#000000; fill-opacity:1.000000; stroke:none;">
<circle cx="165.207500" cy="100.455000" r="0.300000" /> 
</g>
<g style="fill:#000000; fill-opacity:1.000000; stroke:none;">
<circle cx="234.977500" cy="55.355000" r="0.300000" /> 
</g>
<g style="fill:#000000; fill-opacity:1.000000; stroke:none;">
<circle cx="242.337500" cy="35.145000" r="0.300000" /> 
</g>
<g style="fill:#000000; fill-opacity:1.000000; stroke:none;">
<circle cx="136.157500" cy="32.150000" r="0.300000" /> 
</g>
<g style="fill:#000000; fill-opacity:1.000000; stroke:none;">
<circle cx="139.477500" cy="43.280000" r="0.300000" /> 
</g>
<g style="fill:#000000; fill-opacity:1.000000; stroke:none;">
<circle cx="161.287500" cy="30.270000" r="0.300000" /> 
</g>
<g style="fill:#000000; fill-opacity:1.000000; stroke:none;">
<circle cx="153.537500" cy="30.250000" r="0.300000" /> 
</g>
<g style="fill:none; 
stroke:#000000; stroke-width:0.250000; stroke-opacity:1; 
stroke-linecap:round; stroke-linejoin:round;">
<path d="M141.597500 30.505000
L128.237500 30.505000
" />
<path d="M50.307500 27.305000
L51.107500 26.505000
" />
<path d="M50.307500 35.105000
L50.307500 27.305000
" />
<path d="M124.607500 55.205000
L124.607500 69.005000
" />
<path d="M123.607500 54.205000
L124.607500 55.205000
" />
<path d="M69.382500 61.305000
L69.382500 68.405000
" />
<path d="M124.782499 70.830001
L124.807500 70.805000
" />
<path d="M125.984854 86.082354
L124.782499 84.879999
" />
<path d="M126.193738 86.082354
L125.984854 86.082354
" />
<path d="M126.493737 86.382353
L126.193738 86.082354
" />
<path d="M124.782499 84.879999
L124.782499 70.830001
" />
</g>
<g style="fill:none; 
stroke:#000000; stroke-width:0.500000; stroke-opacity:1; 
stroke-linecap:round; stroke-linejoin:round;">
<path d="M70.257498 31.980002
L70.257498 35.654998
" />
<path d="M73.207501 38.605001
L73.507500 38.905000
" />
</g>
<g style="fill:none; 
stroke:#000000; stroke-width:0.508000; stroke-opacity:1; 
stroke-linecap:round; stroke-linejoin:round;">
<path d="M143.134500 62.571000
L142.424500 63.281000
" />
</g>
<g style="fill:none; 
stroke:#000000; stroke-width:0.500000; stroke-opacity:1; 
stroke-linecap:round; stroke-linejoin:round;">
<path d="M33.032500 43.630000
L35.407500 46.005000
" />
<path d="M124.807500 39.805000
L124.207500 40.405000
" />
<path d="M108.632500 74.405000
L108.632500 79.530000
" />
</g>
<g style="fill:none; 
stroke:#000000; stroke-width:0.508000; stroke-opacity:1; 
stroke-linecap:round; stroke-linejoin:round;">
<path d="M144.134500 62.571000
L144.134500 70.514000
" />
<path d="M142.423900 37.022000
L142.423900 39.562000
" />
</g>
<g style="fill:none; 
stroke:#000000; stroke-width:0.500000; stroke-opacity:1; 
stroke-linecap:round; stroke-linejoin:round;">
<path d="M32.932500 57.805000
L32.932500 62.530000
" />
<path d="M70.257498 35.654998
L73.207501 38.605001
" />
<path d="M127.952500 78.960000
L135.123236 78.960000
" />
<path d="M124.207500 51.305000
L120.407500 55.105000
" />
<path d="M111.507500 43.705000
L108.812511 41.010011
" />
</g>
<g style="fill:none; 
stroke:#000000; stroke-width:0.508000; stroke-opacity:1; 
stroke-linecap:round; stroke-linejoin:round;">
<path d="M142.424500 63.281000
L138.677500 67.028000
" />
</g>
<g style="fill:none; 
stroke:#000000; stroke-width:0.500000; stroke-opacity:1; 
stroke-linecap:round; stroke-linejoin:round;">
<path d="M70.607500 74.205000
L73.207498 76.804998
" />
<path d="M119.331764 55.105000
L118.907500 55.105000
" />
<path d="M120.407500 55.105000
L119.331764 55.105000
" />
</g>
<g style="fill:none; 
stroke:#000000; stroke-width:0.508000; stroke-opacity:1; 
stroke-linecap:round; stroke-linejoin:round;">
<path d="M142.423900 39.562000
L144.134500 41.272600
" />
</g>
<g style="fill:none; 
stroke:#000000; stroke-width:0.500000; stroke-opacity:1; 
stroke-linecap:round; stroke-linejoin:round;">
<path d="M108.812511 41.010011
L108.812511 36.443715
" />
<path d="M70.607500 69.730000
L70.607500 74.205000
" />
<path d="M110.907500 81.805000
L111.407500 81.805000
" />
</g>
<g style="fill:none; 
stroke:#000000; stroke-width:0.508000; stroke-opacity:1; 
stroke-linecap:round; stroke-linejoin:round;">
<path d="M144.134500 62.571000
L143.134500 62.571000
" />
<path d="M138.302500 76.392000
L138.568500 76.658000
" />
</g>
<g style="fill:none; 
stroke:#000000; stroke-width:0.500000; stroke-opacity:1; 
stroke-linecap:round; stroke-linejoin:round;">
<path d="M124.807500 36.305000
L124.807500 39.805000
" />
<path d="M108.632500 79.530000
L110.907500 81.805000
" />
<path d="M70.632500 31.605000
L70.257498 31.980002
" />
<path d="M124.207500 40.405000
L124.207500 51.305000
" />
<path d="M34.007500 63.605000
L35.507500 65.105000
" />
<path d="M33.032500 38.605000
L33.032500 43.630000
" />
<path d="M32.932500 62.530000
L34.007500 63.605000
" />
<path d="M73.207498 76.804998
L73.507500 76.804998
" />
<path d="M108.812511 36.443715
L108.862510 36.393716
" />
</g>
<g style="fill:none; 
stroke:#000000; stroke-width:0.508000; stroke-opacity:1; 
stroke-linecap:round; stroke-linejoin:round;">
<path d="M138.677500 67.028000
L138.568500 67.028000
" />
</g>
<g style="fill:none; 
stroke:#000000; stroke-width:0.500000; stroke-opacity:1; 
stroke-linecap:round; stroke-linejoin:round;">
<path d="M135.123236 78.960000
L135.547500 78.960000
" />
<path d="M126.297500 77.305000
L127.952500 78.960000
" />
</g>
<g style="fill:none; 
stroke:#000000; stroke-width:0.508000; stroke-opacity:1; 
stroke-linecap:round; stroke-linejoin:round;">
<path d="M138.256500 76.392000
L138.302500 76.392000
" />
<path d="M144.134500 41.272600
L144.134500 62.571000
" />
</g>
<g style="fill:none; 
stroke:#000000; stroke-width:0.500000; stroke-opacity:1; 
stroke-linecap:round; stroke-linejoin:round;">
<path d="M70.632500 69.705000
L70.607500 69.730000
" />
</g>
<g style="fill:none; 
stroke:#000000; stroke-width:0.508000; stroke-opacity:1; 
stroke-linecap:round; stroke-linejoin:round;">
<path d="M144.134500 70.514000
L138.256500 76.392000
" />
</g>
<g style="fill:none; 
stroke:#000000; stroke-width:0.500000; stroke-opacity:1; 
stroke-linecap:round; stroke-linejoin:round;">
<path d="M124.907500 51.605000
L124.907500 40.955010
" />
</g>
<g style="fill:none; 
stroke:#000000; stroke-width:0.508000; stroke-opacity:1; 
stroke-linecap:round; stroke-linejoin:round;">
<path d="M128.468501 40.778001
L128.627500 40.937000
" />
<path d="M129.620500 68.730000
L134.326500 68.730000
" />
</g>
<g style="fill:none; 
stroke:#000000; stroke-width:0.500000; stroke-opacity:1; 
stroke-linecap:round; stroke-linejoin:round;">
<path d="M124.907500 40.955010
L124.957510 40.905000
" />
<path d="M117.907500 59.105000
L117.907500 58.605000
" />
</g>
<g style="fill:none; 
stroke:#000000; stroke-width:0.508000; stroke-opacity:1; 
stroke-linecap:round; stroke-linejoin:round;">
<path d="M128.419901 40.778001
L128.468501 40.778001
" />
<path d="M128.627500 40.937000
L128.627500 67.737000
" />
<path d="M133.834500 76.392000
L132.682500 76.392000
" />
<path d="M128.627500 67.737000
L129.620500 68.730000
" />
<path d="M134.326500 68.730000
L136.028500 67.028000
" />
<path d="M128.627500 72.337000
L128.627500 67.737000
" />
<path d="M132.682500 76.392000
L128.627500 72.337000
" />
</g>
<g style="fill:none; 
stroke:#000000; stroke-width:0.500000; stroke-opacity:1; 
stroke-linecap:round; stroke-linejoin:round;">
<path d="M117.907500 58.605000
L124.907500 51.605000
" />
</g>
<g style="fill:none; 
stroke:#000000; stroke-width:0.508000; stroke-opacity:1; 
stroke-linecap:round; stroke-linejoin:round;">
<path d="M127.203900 39.562000
L128.419901 40.778001
" />
</g>
<g style="fill:none; 
stroke:#000000; stroke-width:0.250000; stroke-opacity:1; 
stroke-linecap:round; stroke-linejoin:round;">
<path d="M13.007500 35.205000
L13.007500 50.205000
" />
<path d="M13.007500 57.305000
L13.007500 66.705000
" />
<path d="M13.007500 66.705000
L13.007500 69.205000
" />
<path d="M13.007500 54.205000
L13.007500 57.305000
" />
<path d="M32.307500 56.405000
L32.307500 66.205000
" />
<path d="M32.486398 66.205000
L32.496950 66.194448
" />
<path d="M32.307500 69.005000
L32.107500 69.205000
" />
<path d="M31.707500 54.405000
L31.707500 55.805000
" />
<path d="M32.407500 35.605000
L32.407500 49.752247
" />
<path d="M32.264839 49.894908
L31.964840 50.194907
" />
<path d="M32.007500 35.205000
L32.407500 35.605000
" />
<path d="M32.496950 66.194448
L32.796949 65.894449
" />
<path d="M31.707500 55.805000
L32.307500 56.405000
" />
<path d="M32.307500 66.205000
L32.486398 66.205000
" />
<path d="M32.407500 49.752247
L32.264839 49.894908
" />
<path d="M32.307500 66.205000
L32.307500 69.005000
" />
<path d="M51.007500 49.505000
L51.007500 60.505000
" />
<path d="M51.007500 30.505000
L51.007500 45.505000
" />
<path d="M51.007500 60.505000
L51.677078 61.174578
" />
<path d="M51.677078 61.174578
L52.152814 61.174578
" />
<path d="M51.007500 60.505000
L51.007500 64.505000
" />
<path d="M52.152814 61.174578
L52.577078 61.174578
" />
<path d="M70.007500 60.005000
L70.107501 60.004999
" />
<path d="M69.682488 28.430012
L69.682488 42.779988
" />
<path d="M70.007500 28.105000
L69.682488 28.430012
" />
<path d="M70.007500 65.705000
L70.007500 74.505000
" />
<path d="M70.107501 60.004999
L70.407500 59.705000
" />
<path d="M69.707501 42.805001
L70.007500 43.105000
" />
<path d="M70.007500 74.505000
L79.507500 84.005000
" />
<path d="M69.682488 42.779988
L69.707501 42.805001
" />
<path d="M70.007500 60.005000
L70.007500 62.105000
" />
<path d="M70.007500 47.105000
L70.007500 60.005000
" />
<path d="M79.507500 84.005000
L79.507500 84.305000
" />
</g>
<g style="fill:none; 
stroke:#000000; stroke-width:0.500000; stroke-opacity:1; 
stroke-linecap:round; stroke-linejoin:round;">
<path d="M99.707501 84.905001
L100.007500 85.205000
" />
</g>
<g style="fill:none; 
stroke:#000000; stroke-width:0.250000; stroke-opacity:1; 
stroke-linecap:round; stroke-linejoin:round;">
<path d="M89.007500 49.505000
L89.007500 62.305000
" />
</g>
<g style="fill:none; 
stroke:#000000; stroke-width:0.500000; stroke-opacity:1; 
stroke-linecap:round; stroke-linejoin:round;">
<path d="M89.007500 74.205000
L99.707501 84.905001
" />
</g>
<g style="fill:none; 
stroke:#000000; stroke-width:0.250000; stroke-opacity:1; 
stroke-linecap:round; stroke-linejoin:round;">
<path d="M89.007500 30.505000
L89.007500 45.505000
" />
<path d="M89.007500 61.105000
L89.007500 62.305000
" />
</g>
<g style="fill:none; 
stroke:#000000; stroke-width:0.500000; stroke-opacity:1; 
stroke-linecap:round; stroke-linejoin:round;">
<path d="M89.007500 68.505000
L89.007500 74.205000
" />
</g>
<g style="fill:none; 
stroke:#000000; stroke-width:0.250000; stroke-opacity:1; 
stroke-linecap:round; stroke-linejoin:round;">
<path d="M89.407500 60.305000
L89.007500 61.105000
" />
<path d="M89.007500 62.305000
L89.007500 64.505000
" />
<path d="M108.007500 51.805000
L108.007500 66.805000
" />
<path d="M108.007500 70.805000
L108.007500 80.005000
" />
</g>
<g style="fill:none; 
stroke:#000000; stroke-width:0.254000; stroke-opacity:1; 
stroke-linecap:round; stroke-linejoin:round;">
<path d="M108.007500 63.105000
L108.107505 63.104999
" />
</g>
<g style="fill:none; 
stroke:#000000; stroke-width:0.250000; stroke-opacity:1; 
stroke-linecap:round; stroke-linejoin:round;">
<path d="M119.407500 83.805000
L122.607500 87.005000
" />
<path d="M108.007500 47.480736
L108.007500 47.905000
" />
<path d="M122.607500 87.005000
L122.607500 99.005000
" />
<path d="M108.237500 47.250736
L108.007500 47.480736
" />
<path d="M108.237500 33.035000
L108.237500 47.250736
" />
<path d="M111.807500 83.805000
L119.407500 83.805000
" />
<path d="M108.007500 32.805000
L108.237500 33.035000
" />
<path d="M108.007500 80.005000
L111.807500 83.805000
" />
</g>
<g style="fill:none; 
stroke:#000000; stroke-width:0.254000; stroke-opacity:1; 
stroke-linecap:round; stroke-linejoin:round;">
<path d="M108.107505 63.104999
L108.407504 62.805000
" />
<path d="M128.463516 78.300000
L134.969536 78.300000
" />
<path d="M125.534502 40.554028
L125.584512 40.604038
" />
<path d="M126.514500 33.214000
L125.534502 34.193998
" />
<path d="M140.047502 78.282998
L140.834500 77.496000
" />
<path d="M125.534502 34.193998
L125.534502 40.554028
" />
<path d="M134.986538 78.282998
L140.047502 78.282998
" />
<path d="M125.534502 75.370986
L128.463516 78.300000
" />
<path d="M141.155900 33.214000
L126.514500 33.214000
" />
<path d="M134.969536 78.300000
L134.986538 78.282998
" />
<path d="M125.584512 41.205962
L125.534502 41.255972
" />
<path d="M125.584512 40.604038
L125.584512 41.205962
" />
<path d="M140.834500 77.496000
L140.834500 76.392000
" />
<path d="M142.423900 34.482000
L141.155900 33.214000
" />
<path d="M125.534502 41.255972
L125.534502 75.370986
" />
<path d="M125.988513 41.444029
L125.988513 68.421013
" />
<path d="M127.203900 37.022000
L126.038522 38.187378
" />
<path d="M125.988513 68.421013
L127.832500 70.265000
" />
<path d="M127.832500 70.265000
L127.837500 70.270000
" />
<path d="M126.038522 41.394020
L125.988513 41.444029
" />
<path d="M126.038522 38.187378
L126.038522 41.394020
" />
<path d="M137.592557 65.708011
L134.808489 65.708011
" />
<path d="M142.423900 44.642000
L140.558511 46.507389
" />
<path d="M140.558510 62.742058
L137.592557 65.708011
" />
<path d="M140.558511 46.507389
L140.558510 62.742058
" />
<path d="M134.186999 66.329501
L133.488500 67.028000
" />
<path d="M134.808489 65.708011
L134.186999 66.329501
" />
<path d="M142.423900 42.102000
L140.104500 44.421400
" />
<path d="M130.948500 67.010000
L130.948500 67.028000
" />
<path d="M132.704500 65.254000
L130.948500 67.010000
" />
<path d="M137.404500 65.254000
L132.704500 65.254000
" />
<path d="M140.104500 62.554000
L137.404500 65.254000
" />
<path d="M140.104500 44.421400
L140.104500 62.554000
" />
</g>
<g style="fill:none; 
stroke:#000000; stroke-width:0.250000; stroke-opacity:1; 
stroke-linecap:round; stroke-linejoin:round;">
<path d="M173.982501 45.639999
L173.982501 34.307763
" />
<path d="M173.982501 34.307763
L171.063762 31.389024
" />
<path d="M173.357500 46.265000
L173.982501 45.639999
" />
<path d="M175.232500 58.415010
L175.232500 62.500000
" />
<path d="M172.537500 80.201116
L167.110558 85.628058
" />
<path d="M172.537500 58.715000
L172.537500 80.201116
" />
</g>
<g style="fill:none; 
stroke:#000000; stroke-width:0.254000; stroke-opacity:1; 
stroke-linecap:round; stroke-linejoin:round;">
<path d="M155.837500 72.170000
L155.837500 73.170000
" />
<path d="M170.646488 60.155982
L170.646488 76.198944
" />
<path d="M170.687901 35.537001
L170.687901 60.114569
" />
<path d="M160.968489 78.890989
L155.837500 73.760000
" />
<path d="M167.954443 78.890989
L160.968489 78.890989
" />
<path d="M155.837500 73.760000
L155.837500 72.170000
" />
<path d="M169.603900 34.453000
L170.687901 35.537001
" />
<path d="M170.687901 60.114569
L170.646488 60.155982
" />
<path d="M170.646488 76.198944
L167.954443 78.890989
" />
<path d="M167.674500 62.145000
L164.648511 65.170989
" />
<path d="M159.548511 65.170989
L158.039500 66.680000
" />
<path d="M167.674500 44.002400
L167.674500 62.145000
" />
<path d="M164.648511 65.170989
L159.548511 65.170989
" />
<path d="M158.039500 66.680000
L158.039500 67.015000
" />
<path d="M169.603900 42.073000
L167.674500 44.002400
" />
<path d="M168.128511 62.390989
L164.894500 65.625000
" />
<path d="M169.603900 44.613000
L168.128511 46.088389
" />
<path d="M164.894500 65.625000
L161.969500 65.625000
" />
<path d="M168.128511 46.088389
L168.128511 62.390989
" />
<path d="M161.969500 65.625000
L160.579500 67.015000
" />
</g>
<g style="fill:none; 
stroke:#000000; stroke-width:0.250000; stroke-opacity:1; 
stroke-linecap:round; stroke-linejoin:round;">
<path d="M169.643900 31.912000
L170.721530 31.912000
" />
<path d="M170.721530 31.912000
L173.357500 34.547970
" />
<path d="M173.357500 34.547970
L173.357500 41.015000
" />
</g>
<g style="fill:none; 
stroke:#000000; stroke-width:0.254000; stroke-opacity:1; 
stroke-linecap:round; stroke-linejoin:round;">
<path d="M171.307500 33.848000
L171.307500 39.927026
" />
<path d="M158.201900 33.175000
L170.634500 33.175000
" />
<path d="M171.307500 39.927026
L171.141912 40.092614
" />
<path d="M168.142500 79.345000
L160.772500 79.345000
" />
<path d="M171.141911 60.302627
L171.100499 60.344039
" />
<path d="M160.772500 79.345000
L154.057500 72.630000
" />
<path d="M171.141912 40.092614
L171.141911 60.302627
" />
<path d="M171.100499 60.344039
L171.100499 76.387001
" />
<path d="M170.634500 33.175000
L171.307500 33.848000
" />
<path d="M154.057500 70.019000
L154.304500 69.772000
" />
<path d="M154.057500 72.630000
L154.057500 70.019000
" />
<path d="M154.383900 36.993000
L158.201900 33.175000
" />
<path d="M171.100499 76.387001
L168.142500 79.345000
" />
</g>
<g style="fill:none; 
stroke:#000000; stroke-width:0.250000; stroke-opacity:1; 
stroke-linecap:round; stroke-linejoin:round;">
<path d="M269.907500 49.890010
L269.892509 49.905001
" />
<path d="M269.917499 64.465001
L269.917499 54.854999
" />
<path d="M269.917499 54.854999
L269.617500 54.555000
" />
<path d="M269.907500 68.905000
L269.507500 69.305000
" />
<path d="M269.897500 64.485000
L269.917499 64.465001
" />
<path d="M269.899204 64.486704
L269.899204 66.198296
" />
<path d="M269.607500 35.205000
L269.907500 35.505000
" />
<path d="M269.892509 49.905001
L269.592510 50.205000
" />
<path d="M269.897500 64.485000
L269.899204 64.486704
" />
<path d="M269.907500 35.505000
L269.907500 49.890010
" />
<path d="M269.897500 64.485000
L269.907500 68.905000
" />
<path d="M269.899204 66.198296
L269.547500 66.550000
" />
<path d="M250.507500 64.335000
L250.507500 64.185746
" />
<path d="M250.507500 64.185746
L250.421764 64.100010
" />
<path d="M250.507500 35.105000
L250.507500 50.305000
" />
<path d="M250.507500 54.205000
L250.507500 64.335000
" />
<path d="M250.421764 64.100010
L249.997500 64.100010
" />
<path d="M250.507500 64.335000
L250.507500 69.205000
" />
<path d="M231.507500 30.305000
L231.507500 45.505000
" />
<path d="M231.534448 58.813050
L231.234449 58.513051
" />
<path d="M231.607500 59.795000
L231.607500 58.886102
" />
<path d="M231.607500 58.886102
L231.534448 58.813050
" />
<path d="M231.607500 49.505000
L231.607500 59.795000
" />
<path d="M231.607500 59.795000
L231.607500 64.505000
" />
<path d="M212.507500 60.295000
L212.507500 62.005000
" />
<path d="M212.507500 60.295000
L212.507500 59.640000
" />
<path d="M212.107500 59.240000
L212.107500 59.020000
" />
<path d="M212.507500 59.640000
L212.107500 59.240000
" />
<path d="M203.087500 84.335000
L212.557500 74.865000
" />
<path d="M212.557500 74.865000
L212.557500 65.985000
" />
<path d="M212.507500 28.005000
L212.507500 43.105000
" />
<path d="M212.507500 47.105000
L212.507500 60.295000
" />
<path d="M212.507500 62.005000
L212.507500 62.205000
" />
<path d="M193.507500 63.715000
L193.137500 63.345000
" />
<path d="M193.137500 63.345000
L193.137500 62.299264
" />
<path d="M193.137500 62.299264
L193.137500 61.875000
" />
<path d="M193.507500 30.405000
L194.007500 30.905000
" />
<path d="M194.007500 45.005000
L193.507500 45.505000
" />
<path d="M194.007500 30.905000
L194.007500 45.005000
" />
<path d="M193.507500 63.715000
L193.507500 64.505000
" />
<path d="M193.517500 68.325000
L193.517500 76.665000
" />
<path d="M181.287500 88.895000
L181.187500 88.895000
" />
<path d="M193.507500 49.305000
L193.507500 63.715000
" />
<path d="M193.517500 76.665000
L181.287500 88.895000
" />
<path d="M174.607500 66.805000
L174.507500 66.905000
" />
<path d="M166.947500 86.675000
L166.887500 86.675000
" />
<path d="M174.607500 63.295000
L174.327500 63.015000
" />
<path d="M174.607500 51.905000
L174.607500 64.475000
" />
<path d="M174.417500 79.205000
L166.947500 86.675000
" />
<path d="M174.507500 32.805000
L174.507500 47.805000
" />
<path d="M174.607500 64.475000
L174.607500 66.805000
" />
<path d="M174.327500 63.015000
L174.297500 63.015000
" />
<path d="M174.417500 70.675000
L174.417500 79.205000
" />
<path d="M174.607500 64.475000
L174.607500 63.295000
" />
</g>
<g style="fill:none; 
stroke:#000000; stroke-width:0.500000; stroke-opacity:1; 
stroke-linecap:round; stroke-linejoin:round;">
<path d="M163.214500 67.015000
L163.119500 67.015000
" />
<path d="M163.244500 67.045000
L163.214500 67.015000
" />
<path d="M159.047500 68.610000
L159.057500 68.600000
" />
<path d="M162.469500 68.600000
L163.244500 67.825000
" />
<path d="M155.917500 41.066600
L155.917500 67.430000
" />
<path d="M157.097500 68.610000
L159.047500 68.610000
" />
<path d="M154.383900 39.533000
L155.917500 41.066600
" />
<path d="M171.787500 51.754998
L171.787500 60.470736
" />
<path d="M155.917500 67.430000
L157.097500 68.610000
" />
<path d="M171.857490 40.305000
L171.857490 51.685008
" />
<path d="M159.057500 68.600000
L161.534500 68.600000
" />
<path d="M171.787500 60.470736
L171.787500 60.895000
" />
<path d="M162.469500 68.600000
L162.837500 68.968000
" />
<path d="M171.857490 51.685008
L171.787500 51.754998
" />
<path d="M162.837500 68.968000
L162.837500 72.170000
" />
<path d="M163.244500 67.825000
L163.244500 67.045000
" />
<path d="M161.534500 68.600000
L162.469500 68.600000
" />
</g>
<g style="fill:none; 
stroke:#000000; stroke-width:0.508000; stroke-opacity:1; 
stroke-linecap:round; stroke-linejoin:round;">
<path d="M152.784500 65.895000
L158.837500 71.948000
" />
</g>
<g style="fill:none; 
stroke:#000000; stroke-width:0.500000; stroke-opacity:1; 
stroke-linecap:round; stroke-linejoin:round;">
<path d="M169.603900 36.993000
L169.603900 39.533000
" />
</g>
<g style="fill:none; 
stroke:#000000; stroke-width:0.508000; stroke-opacity:1; 
stroke-linecap:round; stroke-linejoin:round;">
<path d="M153.304500 63.272000
L154.304500 63.272000
" />
<path d="M158.837500 71.948000
L158.837500 72.170000
" />
<path d="M152.784500 62.752000
L152.784500 65.895000
" />
<path d="M152.784500 62.752000
L153.304500 63.272000
" />
</g>
<g style="fill:none; 
stroke:#000000; stroke-width:0.500000; stroke-opacity:1; 
stroke-linecap:round; stroke-linejoin:round;">
<path d="M214.997501 32.354999
L214.997501 39.553872
" />
<path d="M215.257500 69.915000
L215.257500 77.735002
" />
<path d="M165.689500 67.045000
L165.784500 67.045000
" />
<path d="M177.287500 44.435325
L177.253436 44.469389
" />
<path d="M177.037500 82.385000
L176.737501 82.085001
" />
<path d="M165.784500 67.045000
L165.784500 72.295000
" />
</g>
<g style="fill:none; 
stroke:#000000; stroke-width:0.508000; stroke-opacity:1; 
stroke-linecap:round; stroke-linejoin:round;">
<path d="M153.621901 35.214999
L153.621901 35.215599
" />
</g>
<g style="fill:none; 
stroke:#000000; stroke-width:0.500000; stroke-opacity:1; 
stroke-linecap:round; stroke-linejoin:round;">
<path d="M172.607500 51.520736
L172.707500 51.620736
" />
<path d="M253.172490 65.309753
L253.172490 65.734017
" />
<path d="M253.014994 46.656654
L253.314993 46.956653
" />
<path d="M172.607500 36.878000
L172.607500 51.520736
" />
<path d="M253.172490 58.410010
L253.172490 65.309753
" />
<path d="M215.297500 32.055000
L214.997501 32.354999
" />
<path d="M172.707500 51.620736
L172.707500 52.045000
" />
</g>
<g style="fill:none; 
stroke:#000000; stroke-width:0.508000; stroke-opacity:1; 
stroke-linecap:round; stroke-linejoin:round;">
<path d="M152.784500 36.053000
L152.784500 62.752000
" />
</g>
<g style="fill:none; 
stroke:#000000; stroke-width:0.500000; stroke-opacity:1; 
stroke-linecap:round; stroke-linejoin:round;">
<path d="M177.287500 37.135000
L177.287500 44.435325
" />
<path d="M214.997501 39.553872
L215.152490 39.708861
" />
<path d="M253.577500 58.005000
L253.172490 58.410010
" />
<path d="M176.737501 82.085001
L176.737501 74.934999
" />
<path d="M176.737501 74.934999
L176.987500 74.685000
" />
<path d="M161.807500 76.272000
L161.807500 77.705000
" />
<path d="M171.934500 36.205000
L172.607500 36.878000
" />
<path d="M253.757500 38.945000
L253.014994 39.687506
" />
</g>
<g style="fill:none; 
stroke:#000000; stroke-width:0.508000; stroke-opacity:1; 
stroke-linecap:round; stroke-linejoin:round;">
<path d="M154.383900 34.453000
L153.621901 35.214999
" />
<path d="M153.621901 35.215599
L152.784500 36.053000
" />
</g>
<g style="fill:none; 
stroke:#000000; stroke-width:0.500000; stroke-opacity:1; 
stroke-linecap:round; stroke-linejoin:round;">
<path d="M161.807500 77.705000
L161.807500 77.508000
" />
<path d="M177.777500 36.645000
L177.287500 37.135000
" />
<path d="M165.784500 72.295000
L161.807500 76.272000
" />
<path d="M215.257500 77.735002
L215.217502 77.775000
" />
<path d="M253.014994 39.687506
L253.014994 46.656654
" />
<path d="M165.659500 67.015000
L165.689500 67.045000
" />
</g>
<g style="fill:none; 
stroke:#000000; stroke-width:0.250000; stroke-opacity:1; 
stroke-linecap:round; stroke-linejoin:round;">
<path d="M33.107500 49.905000
L32.507500 50.505000
" />
<path d="M33.577500 56.475000
L33.577500 61.660000
" />
<path d="M34.637500 62.720000
L34.727500 62.720000
" />
<path d="M33.107500 48.705000
L33.107500 49.905000
" />
<path d="M32.507500 55.405000
L33.577500 56.475000
" />
<path d="M33.577500 61.660000
L34.637500 62.720000
" />
<path d="M32.507500 50.505000
L32.507500 55.405000
" />
<path d="M79.512500 31.310000
L72.202500 31.310000
" />
<path d="M62.107506 36.526946
L62.387500 36.246952
" />
<path d="M72.202500 31.310000
L71.307499 32.205001
" />
<path d="M62.107506 37.954990
L62.107506 36.526946
" />
<path d="M80.807500 32.605000
L79.512500 31.310000
" />
<path d="M71.307499 32.205001
L71.007500 32.505000
" />
<path d="M99.882500 37.455000
L99.882500 36.595000
" />
<path d="M109.862520 36.505001
L109.562521 36.805000
" />
<path d="M110.362521 36.005000
L109.862520 36.505001
" />
<path d="M117.407500 36.005000
L110.362521 36.005000
" />
<path d="M118.807500 37.405000
L117.407500 36.005000
" />
<path d="M99.882500 36.595000
L100.597500 35.880000
" />
<path d="M24.107500 40.105000
L25.027735 41.025235
" />
<path d="M25.027735 51.684765
L23.607501 53.104999
" />
<path d="M24.107500 59.705000
L24.107500 62.405000
" />
<path d="M24.107500 62.405000
L24.007500 62.505000
" />
<path d="M23.607501 53.104999
L23.607501 59.205001
" />
<path d="M25.027735 41.025235
L25.027735 51.684765
" />
<path d="M23.607501 59.205001
L24.107500 59.705000
" />
<path d="M36.117500 45.800000
L36.117500 47.420000
" />
<path d="M35.107500 44.790000
L36.117500 45.800000
" />
<path d="M35.107500 41.605000
L35.107500 44.790000
" />
<path d="M42.207500 53.510000
L42.207500 58.205000
" />
<path d="M35.507500 41.205000
L35.107500 41.605000
" />
<path d="M36.117500 47.420000
L42.207500 53.510000
" />
<path d="M42.207500 58.205000
L42.707500 58.705000
" />
<path d="M63.042502 36.540002
L63.042502 35.889998
" />
<path d="M62.457504 35.305000
L62.331764 35.305000
" />
<path d="M62.807500 36.775004
L63.042502 36.540002
" />
<path d="M60.707500 48.705000
L62.807500 46.605000
" />
<path d="M60.707500 56.655000
L60.707500 48.705000
" />
<path d="M62.807500 46.605000
L62.807500 36.775004
" />
<path d="M62.331764 35.305000
L61.907500 35.305000
" />
<path d="M63.042502 35.889998
L62.457504 35.305000
" />
<path d="M74.187500 40.200000
L80.207500 46.220000
" />
<path d="M74.187500 38.610000
L74.187500 40.200000
" />
<path d="M73.307500 37.730000
L74.187500 38.610000
" />
<path d="M80.207500 46.220000
L80.207500 51.105000
" />
<path d="M73.307500 34.105000
L73.307500 37.730000
" />
<path d="M80.207500 51.105000
L80.807500 51.705000
" />
<path d="M101.255930 35.003426
L100.867963 35.003426
" />
<path d="M100.707499 37.265005
L101.812502 36.160002
" />
<path d="M101.812502 35.559998
L101.255930 35.003426
" />
<path d="M98.607500 49.105000
L100.707499 47.005001
" />
<path d="M101.812502 36.160002
L101.812502 35.559998
" />
<path d="M100.707499 47.005001
L100.707499 37.265005
" />
<path d="M98.607500 56.755000
L98.607500 49.105000
" />
<path d="M100.867963 35.003426
L100.443699 35.003426
" />
<path d="M112.147500 44.720000
L118.282499 50.854999
" />
<path d="M112.147500 43.270000
L112.147500 44.720000
" />
<path d="M111.407500 38.905000
L111.407500 42.530000
" />
<path d="M118.282499 56.079999
L118.607500 56.405000
" />
<path d="M111.407500 42.530000
L112.147500 43.270000
" />
<path d="M118.282499 50.854999
L118.282499 56.079999
" />
<path d="M24.307500 59.005000
L24.632501 59.330001
" />
<path d="M24.632501 70.479999
L23.607500 71.505000
" />
<path d="M23.607500 71.505000
L23.607500 80.980736
" />
<path d="M23.607500 80.980736
L23.607500 81.405000
" />
<path d="M24.632501 59.330001
L24.632501 70.479999
" />
<path d="M36.187500 66.585000
L41.907500 72.305000
" />
<path d="M35.407500 60.405000
L35.407500 64.050000
" />
<path d="M36.187500 64.830000
L36.187500 66.585000
" />
<path d="M41.907500 72.305000
L41.907500 76.905000
" />
<path d="M35.407500 64.050000
L36.187500 64.830000
" />
<path d="M41.907500 76.905000
L42.707500 77.705000
" />
<path d="M73.407500 53.105000
L73.407500 58.705000
" />
<path d="M80.207500 65.505000
L80.207500 70.105000
" />
<path d="M73.407500 58.705000
L80.207500 65.505000
" />
<path d="M80.207500 70.105000
L80.807500 70.705000
" />
<path d="M98.807500 75.705000
L98.807500 68.105000
" />
<path d="M100.857500 55.329264
L100.857500 54.905000
" />
<path d="M100.857500 66.055000
L100.857500 55.329264
" />
<path d="M98.807500 68.105000
L100.857500 66.055000
" />
<path d="M118.307500 74.480736
L118.807500 74.980736
" />
<path d="M118.807500 74.980736
L118.807500 75.405000
" />
<path d="M111.307500 63.705000
L118.307500 70.705000
" />
<path d="M118.307500 70.705000
L118.307500 74.480736
" />
<path d="M111.307500 57.805000
L111.307500 63.705000
" />
<path d="M85.777500 83.510000
L89.707500 87.440000
" />
<path d="M89.707500 92.105000
L90.307500 92.705000
" />
<path d="M81.867500 83.510000
L85.777500 83.510000
" />
<path d="M73.407500 75.050000
L81.867500 83.510000
" />
<path d="M73.407500 72.105000
L73.407500 75.050000
" />
<path d="M89.707500 87.440000
L89.707500 92.105000
" />
<path d="M123.707500 90.805000
L125.507500 92.605000
" />
<path d="M133.693925 92.605000
L134.900693 93.811768
" />
<path d="M111.407500 76.905000
L115.407500 80.905000
" />
<path d="M115.407500 80.905000
L118.207500 80.905000
" />
<path d="M118.207500 80.905000
L123.707500 86.405000
" />
<path d="M123.707500 86.405000
L123.707500 90.805000
" />
<path d="M134.900693 93.811768
L135.200692 94.111767
" />
<path d="M125.507500 92.605000
L133.693925 92.605000
" />
<path d="M97.107500 98.605000
L94.307500 95.805000
" />
<path d="M108.707500 98.605000
L97.107500 98.605000
" />
<path d="M84.607500 95.805000
L82.907500 94.105000
" />
<path d="M108.807500 98.705000
L108.707500 98.605000
" />
<path d="M110.207500 96.705000
L110.507500 97.005000
" />
<path d="M94.307500 95.805000
L84.607500 95.805000
" />
<path d="M110.507500 97.005000
L108.807500 98.705000
" />
<path d="M125.907500 101.105000
L132.707500 101.105000
" />
<path d="M123.107500 86.705000
L123.107500 98.305000
" />
<path d="M123.107500 98.305000
L125.907500 101.105000
" />
<path d="M119.007500 82.605000
L123.107500 86.705000
" />
<path d="M269.282500 47.215000
L268.961665 47.535835
" />
<path d="M268.961665 47.535835
L268.961665 62.082961
" />
<path d="M268.961665 62.082961
L269.261664 62.382960
" />
<path d="M281.337500 40.985000
L281.337500 52.375000
" />
<path d="M279.447500 54.265000
L279.447500 56.385000
" />
<path d="M274.297500 57.525000
L272.977500 58.845000
" />
<path d="M280.317500 39.965000
L281.337500 40.985000
" />
<path d="M278.307500 57.525000
L274.297500 57.525000
" />
<path d="M279.447500 56.385000
L278.307500 57.525000
" />
<path d="M272.977500 58.845000
L272.977500 60.175000
" />
<path d="M281.337500 52.375000
L279.447500 54.265000
" />
<path d="M254.167500 41.779266
L254.167500 41.355002
" />
<path d="M261.307500 58.745000
L261.307500 54.075000
" />
<path d="M253.817500 42.129266
L254.167500 41.779266
" />
<path d="M253.817500 46.585000
L253.817500 42.129266
" />
<path d="M261.307500 54.075000
L253.817500 46.585000
" />
<path d="M223.232169 51.890331
L223.232169 51.466067
" />
<path d="M222.827500 47.035000
L215.777500 39.985000
" />
<path d="M222.827500 51.061398
L222.827500 47.035000
" />
<path d="M223.232169 51.466067
L222.827500 51.061398
" />
<path d="M215.777500 34.375000
L216.047500 34.105000
" />
<path d="M215.777500 39.985000
L215.777500 34.375000
" />
<path d="M196.907500 53.865000
L196.907500 55.365000
" />
<path d="M205.157500 35.905000
L205.157500 46.955000
" />
<path d="M197.917500 52.855000
L196.907500 53.865000
" />
<path d="M205.157500 46.955000
L203.857500 48.255000
" />
<path d="M201.757500 52.855000
L197.917500 52.855000
" />
<path d="M203.857500 50.755000
L201.757500 52.855000
" />
<path d="M204.437500 35.185000
L205.157500 35.905000
" />
<path d="M203.857500 48.255000
L203.857500 50.755000
" />
<path d="M178.037510 44.595010
L178.037510 39.329264
" />
<path d="M185.337500 51.895000
L178.037510 44.595010
" />
<path d="M185.337500 56.385000
L185.337500 51.895000
" />
<path d="M178.037510 39.329264
L178.037510 38.905000
" />
<path d="M71.307500 72.990000
L72.757500 74.440000
" />
<path d="M70.707500 68.405000
L71.307500 69.005000
" />
<path d="M71.307500 69.005000
L71.307500 72.990000
" />
<path d="M24.307500 43.570010
L24.307500 41.705223
" />
<path d="M41.607500 38.405000
L34.607500 38.405000
" />
<path d="M42.907500 39.705000
L41.607500 38.405000
" />
<path d="M24.307500 41.705223
L24.402733 41.609990
" />
<path d="M34.607500 38.405000
L34.107499 38.905001
" />
<path d="M34.107499 38.905001
L33.807500 39.205000
" />
<path d="M60.677169 75.535331
L60.707500 75.505000
" />
<path d="M62.107500 54.730010
L62.232510 54.605000
" />
<path d="M61.407500 67.105000
L62.532509 65.979991
" />
<path d="M62.532509 56.130009
L62.107500 55.705000
" />
<path d="M62.107500 55.705000
L62.107500 54.730010
" />
<path d="M60.807500 75.505000
L61.407500 74.905000
" />
<path d="M60.707500 75.505000
L60.807500 75.505000
" />
<path d="M62.532509 65.979991
L62.532509 56.130009
" />
<path d="M61.407500 74.905000
L61.407500 67.105000
" />
<path d="M37.107500 81.355000
L35.207500 79.455000
" />
<path d="M62.007500 73.230010
L62.032510 73.205000
" />
<path d="M35.207500 79.455000
L35.207500 79.405000
" />
<path d="M62.007500 77.105000
L62.007500 73.230010
" />
<path d="M61.907500 77.205000
L62.007500 77.105000
" />
<path d="M35.207500 79.405000
L35.107500 79.305000
" />
<path d="M99.807500 73.405000
L99.807500 75.105000
" />
<path d="M99.907500 73.305000
L99.807500 73.405000
" />
<path d="M101.107500 76.405000
L101.107500 94.005000
" />
<path d="M99.807500 75.105000
L101.107500 76.405000
" />
<path d="M101.107500 94.005000
L102.707500 95.605000
" />
<path d="M213.187500 74.625000
L213.187500 59.444266
" />
<path d="M213.187500 59.444266
L213.147500 59.404266
" />
<path d="M214.327500 75.765000
L213.187500 74.625000
" />
<path d="M213.147500 59.404266
L213.147500 58.980002
" />
<path d="M174.187500 90.410000
L174.187500 87.775000
" />
<path d="M177.042490 84.920010
L177.042490 83.655000
" />
<path d="M162.457500 92.430000
L172.167500 92.430000
" />
<path d="M160.337500 94.635000
L160.337500 94.550000
" />
<path d="M174.187500 87.775000
L177.042490 84.920010
" />
<path d="M160.337500 94.550000
L162.457500 92.430000
" />
<path d="M172.167500 92.430000
L174.187500 90.410000
" />
<path d="M280.979501 59.507001
L280.979501 71.382999
" />
<path d="M272.887500 77.370000
L272.887500 79.025000
" />
<path d="M272.887500 79.025000
L273.117500 79.255000
" />
<path d="M278.302500 76.350000
L273.907500 76.350000
" />
<path d="M280.367500 58.895000
L280.979501 59.507001
" />
<path d="M279.467500 75.185000
L278.302500 76.350000
" />
<path d="M273.907500 76.350000
L272.887500 77.370000
" />
<path d="M279.467500 72.895000
L279.467500 75.185000
" />
<path d="M280.979501 71.382999
L279.467500 72.895000
" />
<path d="M253.797500 60.635000
L254.007500 60.425000
" />
<path d="M261.327500 73.375000
L253.797500 65.845000
" />
<path d="M253.797500 65.845000
L253.797500 60.635000
" />
<path d="M261.327500 77.755000
L261.327500 73.375000
" />
<path d="M243.167500 55.609264
L243.167500 66.375000
" />
<path d="M241.527500 68.015000
L241.527500 70.385000
" />
<path d="M242.277500 54.295000
L242.277500 54.719264
" />
<path d="M243.167500 66.375000
L241.527500 68.015000
" />
<path d="M234.887500 72.615000
L234.887500 74.335000
" />
<path d="M240.177500 71.735000
L235.767500 71.735000
" />
<path d="M234.887500 74.335000
L234.907500 74.355000
" />
<path d="M235.767500 71.735000
L234.887500 72.615000
" />
<path d="M241.527500 70.385000
L240.177500 71.735000
" />
<path d="M242.277500 54.719264
L243.167500 55.609264
" />
<path d="M222.707500 66.227998
L222.687500 66.207998
" />
<path d="M222.687500 65.755000
L215.897500 58.965000
" />
<path d="M222.707500 70.165662
L222.707500 66.227998
" />
<path d="M215.897500 58.965000
L215.897500 53.155000
" />
<path d="M223.267169 70.725331
L222.707500 70.165662
" />
<path d="M222.687500 66.207998
L222.687500 65.755000
" />
<path d="M203.587500 70.315000
L202.007510 71.894990
" />
<path d="M202.007510 71.894990
L198.157490 71.894990
" />
<path d="M196.857500 73.194980
L196.857500 74.365000
" />
<path d="M204.397500 54.145000
L205.227500 54.975000
" />
<path d="M205.227500 54.975000
L205.227500 66.575000
" />
<path d="M198.157490 71.894990
L196.857500 73.194980
" />
<path d="M205.227500 66.575000
L203.587500 68.215000
" />
<path d="M203.587500 68.215000
L203.587500 70.315000
" />
<path d="M184.617500 74.775000
L184.617500 70.887998
" />
<path d="M185.367500 75.525000
L184.617500 74.775000
" />
<path d="M184.617500 70.887998
L178.234502 64.505000
" />
<path d="M178.234502 64.505000
L178.234502 58.162002
" />
<path d="M178.234502 58.162002
L177.937500 57.865000
" />
<path d="M213.767500 92.735000
L213.767500 92.310736
" />
<path d="M213.767500 92.310736
L213.247500 91.790736
" />
<path d="M215.842503 72.299997
L216.007500 72.135000
" />
<path d="M213.247500 91.790736
L213.247500 86.575000
" />
<path d="M213.247500 86.575000
L214.737500 85.085000
" />
<path d="M214.737500 85.085000
L215.842503 83.979997
" />
<path d="M214.737500 85.085000
L215.237500 84.585000
" />
<path d="M215.842503 83.979997
L215.842503 72.299997
" />
<path d="M186.837500 95.620000
L186.837500 97.375000
" />
<path d="M204.327500 73.235000
L204.327500 75.190000
" />
<path d="M187.901823 94.710298
L187.697500 94.790000
" />
<path d="M187.551049 94.906451
L186.837500 95.620000
" />
<path d="M186.837500 97.375000
L186.947500 97.485000
" />
<path d="M187.950366 94.626221
L187.901823 94.710298
" />
<path d="M191.694520 93.622979
L187.950366 94.626221
" />
<path d="M187.697500 94.790000
L187.551049 94.906451
" />
<path d="M192.667500 92.650000
L191.694520 93.622979
" />
<path d="M192.667500 86.850000
L192.667500 92.650000
" />
<path d="M204.327500 75.190000
L192.667500 86.850000
" />
<path d="M174.667500 88.015000
L177.667500 85.015000
" />
<path d="M177.667500 77.075000
L177.707500 77.035000
" />
<path d="M166.112500 101.360000
L170.167500 101.360000
" />
<path d="M165.207500 100.455000
L166.112500 101.360000
" />
<path d="M177.667500 85.015000
L177.667500 77.075000
" />
<path d="M174.667500 96.860000
L174.667500 88.015000
" />
<path d="M170.167500 101.360000
L174.667500 96.860000
" />
<path d="M242.337500 35.145000
L242.337500 35.569264
" />
<path d="M243.087500 36.319264
L243.087500 47.425000
" />
<path d="M236.212500 52.715000
L234.977500 53.950000
" />
<path d="M243.087500 47.425000
L241.677500 48.835000
" />
<path d="M242.337500 35.569264
L243.087500 36.319264
" />
<path d="M240.087500 52.715000
L236.212500 52.715000
" />
<path d="M241.677500 51.125000
L240.087500 52.715000
" />
<path d="M234.977500 53.950000
L234.977500 55.355000
" />
<path d="M241.677500 48.835000
L241.677500 51.125000
" />
<path d="M143.867500 35.170000
L143.867500 34.022349
" />
<path d="M141.827500 33.210000
L140.767500 32.150000
" />
<path d="M143.867500 34.022349
L143.055151 33.210000
" />
<path d="M141.387500 35.760000
L143.277500 35.760000
" />
<path d="M139.477500 37.670000
L141.387500 35.760000
" />
<path d="M143.277500 35.760000
L143.867500 35.170000
" />
<path d="M140.767500 32.150000
L136.157500 32.150000
" />
<path d="M143.055151 33.210000
L141.827500 33.210000
" />
<path d="M139.477500 43.280000
L139.477500 37.670000
" />
</g>
<g style="fill:none; 
stroke:#000000; stroke-width:0.500000; stroke-opacity:1; 
stroke-linecap:round; stroke-linejoin:round;">
<path d="M158.837500 74.538000
L158.837500 74.520000
" />
</g>
<g style="fill:none; 
stroke:#000000; stroke-width:0.250000; stroke-opacity:1; 
stroke-linecap:round; stroke-linejoin:round;">
<path d="M161.267500 30.250000
L153.537500 30.250000
" />
<path d="M161.287500 30.270000
L161.267500 30.250000
" />
</g> 
</svg>
