<?xml version="1.0" standalone="no"?>
 <!DOCTYPE svg PUBLIC "-//W3C//DTD SVG 1.1//EN" 
 "http://www.w3.org/Graphics/SVG/1.1/DTD/svg11.dtd"> 
<svg
  xmlns:svg="http://www.w3.org/2000/svg"
  xmlns="http://www.w3.org/2000/svg"
  xmlns:xlink="http://www.w3.org/1999/xlink"
  version="1.1"
  width="297.002200mm" height="210.007200mm" viewBox="0.000000 0.000000 297.002200 210.007200">
<title>SVG Image created as corne-cherry-Edge_Cuts.svg date 2024/09/23 11:10:56 </title>
  <desc>Image generated by PCBNEW </desc>
<g style="fill:#000000; fill-opacity:1.000000;stroke:#000000; stroke-opacity:1.000000;
stroke-linecap:round; stroke-linejoin:round;"
 transform="translate(0 0) scale(1 1)">
</g>
<g style="fill:none; 
stroke:#000000; stroke-width:0.200000; stroke-opacity:1; 
stroke-linecap:round; stroke-linejoin:round;">
<path d="M17.807500 83.020309
L17.812500 83.250000
" />
<path d="M17.812500 83.250000
L17.812300 83.252000
" />
</g>
<g style="fill:#000000; fill-opacity:1.000000; stroke:none;">
<circle cx="17.812300" cy="83.252000" r="0.100000" /> 
</g>
<g style="fill:none; 
stroke:#000000; stroke-width:0.200000; stroke-opacity:1; 
stroke-linecap:round; stroke-linejoin:round;">
<path d="M17.812300 83.252000
L17.789600 83.483000
" />
</g>
<g style="fill:#000000; fill-opacity:1.000000; stroke:none;">
<circle cx="17.789600" cy="83.483000" r="0.100000" /> 
<circle cx="17.789600" cy="83.483000" r="0.100000" /> 
</g>
<g style="fill:none; 
stroke:#000000; stroke-width:0.200000; stroke-opacity:1; 
stroke-linecap:round; stroke-linejoin:round;">
<path d="M17.789600 83.483000
L17.789600 83.484000
" />
<path d="M17.789600 83.484000
L17.788600 83.488000
" />
<path d="M17.788600 83.488000
L17.787700 83.493000
" />
<path d="M17.787700 83.493000
L17.720800 83.714000
" />
<path d="M17.720800 83.714000
L17.720600 83.715000
" />
<path d="M17.720600 83.715000
L17.718800 83.719000
" />
<path d="M17.718800 83.719000
L17.717000 83.724000
" />
<path d="M17.717000 83.724000
L17.608200 83.928000
" />
<path d="M17.608200 83.928000
L17.607900 83.929000
" />
<path d="M17.607900 83.929000
L17.605400 83.932000
" />
<path d="M17.605400 83.932000
L17.602800 83.936000
" />
<path d="M17.602800 83.936000
L17.456400 84.116000
" />
</g>
<g style="fill:#000000; fill-opacity:1.000000; stroke:none;">
<circle cx="17.456400" cy="84.116000" r="0.100000" /> 
<circle cx="17.456400" cy="84.116000" r="0.100000" /> 
</g>
<g style="fill:none; 
stroke:#000000; stroke-width:0.200000; stroke-opacity:1; 
stroke-linecap:round; stroke-linejoin:round;">
<path d="M17.456400 84.116000
L17.455900 84.116000
" />
<path d="M17.455900 84.116000
L17.452700 84.120000
" />
<path d="M17.452700 84.120000
L17.449500 84.123000
" />
<path d="M17.449500 84.123000
L17.270900 84.271000
" />
<path d="M17.270900 84.271000
L17.270400 84.271000
" />
<path d="M17.270400 84.271000
L17.266600 84.273000
" />
<path d="M17.266600 84.273000
L17.262800 84.276000
" />
<path d="M17.262800 84.276000
L17.059000 84.386000
" />
</g>
<g style="fill:#000000; fill-opacity:1.000000; stroke:none;">
<circle cx="17.059000" cy="84.386000" r="0.100000" /> 
<circle cx="17.059000" cy="84.386000" r="0.100000" /> 
</g>
<g style="fill:none; 
stroke:#000000; stroke-width:0.200000; stroke-opacity:1; 
stroke-linecap:round; stroke-linejoin:round;">
<path d="M17.059000 84.386000
L17.058300 84.387000
" />
<path d="M17.058300 84.387000
L17.054200 84.388000
" />
<path d="M17.054200 84.388000
L17.050000 84.390000
" />
<path d="M17.050000 84.390000
L16.828600 84.459000
" />
<path d="M16.828600 84.459000
L16.827900 84.459000
" />
<path d="M16.827900 84.459000
L16.823500 84.460000
" />
<path d="M16.823500 84.460000
L16.819000 84.460000
" />
<path d="M16.819000 84.460000
L16.588500 84.485000
" />
<path d="M16.588500 84.485000
L16.587800 84.485000
" />
<path d="M16.587800 84.485000
L16.585600 84.485000
" />
<path d="M16.585600 84.485000
L16.583500 84.485000
" />
<path d="M16.583500 84.485000
L16.577500 84.485000
" />
<path d="M16.577500 84.485000
L16.577400 84.485000
" />
<path d="M16.577400 84.485000
L11.825200 84.485000
" />
<path d="M11.825200 84.485000
L11.819400 84.485000
" />
<path d="M11.819400 84.485000
L11.596300 84.508000
" />
<path d="M11.596300 84.508000
L11.384300 84.574000
" />
<path d="M11.384300 84.574000
L11.189100 84.680000
" />
<path d="M11.189100 84.680000
L11.018000 84.821000
" />
<path d="M11.018000 84.821000
L10.877800 84.993000
" />
<path d="M10.877800 84.993000
L10.773600 85.189000
" />
<path d="M10.773600 85.189000
L10.709400 85.402000
" />
<path d="M10.709400 85.402000
L10.687500 85.625000
" />
<path d="M10.687500 116.497000
L10.687500 116.503000
" />
<path d="M10.687500 116.503000
L10.711000 116.726000
" />
<path d="M10.711000 116.726000
L10.776600 116.938000
" />
<path d="M10.776600 116.938000
L10.882200 117.133000
" />
<path d="M10.882200 117.133000
L11.023600 117.304000
" />
<path d="M11.023600 117.304000
L11.195700 117.445000
" />
<path d="M11.195700 117.445000
L11.391600 117.549000
" />
<path d="M11.391600 117.549000
L11.604100 117.613000
" />
<path d="M11.604100 117.613000
L11.827400 117.635000
" />
<path d="M11.827400 117.635000
L285.057500 117.626000
" />
<path d="M285.055500 12.038500
L11.825200 12.047500
" />
<path d="M11.825200 12.047500
L11.819400 12.047500
" />
<path d="M11.819400 12.047500
L11.596300 12.071000
" />
<path d="M11.596300 12.071000
L11.384300 12.136600
" />
<path d="M11.384300 12.136600
L11.189100 12.242200
" />
<path d="M11.189100 12.242200
L11.018000 12.383700
" />
<path d="M11.018000 12.383700
L10.877800 12.555700
" />
<path d="M10.877800 12.555700
L10.773600 12.751600
" />
<path d="M10.773600 12.751600
L10.709400 12.964100
" />
<path d="M10.709400 12.964100
L10.687500 13.187500
" />
<path d="M10.687500 13.187500
L10.687500 16.747300
" />
<path d="M10.687500 16.747300
L10.687500 16.753100
" />
<path d="M10.687500 16.753100
L10.711000 16.976200
" />
<path d="M10.711000 16.976200
L10.776600 17.188200
" />
<path d="M10.776600 17.188200
L10.882200 17.383500
" />
<path d="M10.882200 17.383500
L11.023600 17.554500
" />
<path d="M11.023600 17.554500
L11.195700 17.694800
" />
<path d="M11.195700 17.694800
L11.391600 17.799000
" />
<path d="M11.391600 17.799000
L11.604100 17.863100
" />
<path d="M11.604100 17.863100
L11.827400 17.885000
" />
<path d="M11.827400 17.885000
L54.577400 17.885000
" />
<path d="M54.577400 17.885000
L54.579900 17.885300
" />
</g>
<g style="fill:#000000; fill-opacity:1.000000; stroke:none;">
<circle cx="54.579900" cy="17.885300" r="0.100000" /> 
</g>
<g style="fill:none; 
stroke:#000000; stroke-width:0.200000; stroke-opacity:1; 
stroke-linecap:round; stroke-linejoin:round;">
<path d="M54.579900 17.885300
L54.810500 17.907900
" />
</g>
<g style="fill:#000000; fill-opacity:1.000000; stroke:none;">
<circle cx="54.810500" cy="17.907900" r="0.100000" /> 
<circle cx="54.810500" cy="17.907900" r="0.100000" /> 
</g>
<g style="fill:none; 
stroke:#000000; stroke-width:0.200000; stroke-opacity:1; 
stroke-linecap:round; stroke-linejoin:round;">
<path d="M54.810500 17.907900
L54.811200 17.907900
" />
<path d="M54.811200 17.907900
L54.815600 17.908900
" />
<path d="M54.815600 17.908900
L54.820100 17.909800
" />
<path d="M54.820100 17.909800
L55.042000 17.976800
" />
<path d="M55.042000 17.976800
L55.042600 17.977000
" />
<path d="M55.042600 17.977000
L55.046800 17.978700
" />
<path d="M55.046800 17.978700
L55.051000 17.980500
" />
<path d="M55.051000 17.980500
L55.255600 18.089300
" />
</g>
<g style="fill:#000000; fill-opacity:1.000000; stroke:none;">
<circle cx="55.255600" cy="18.089300" r="0.100000" /> 
<circle cx="55.255600" cy="18.089300" r="0.100000" /> 
</g>
<g style="fill:none; 
stroke:#000000; stroke-width:0.200000; stroke-opacity:1; 
stroke-linecap:round; stroke-linejoin:round;">
<path d="M55.255600 18.089300
L55.256200 18.089600
" />
<path d="M55.256200 18.089600
L55.260000 18.092200
" />
<path d="M55.260000 18.092200
L55.263800 18.094700
" />
<path d="M55.263800 18.094700
L55.443400 18.241200
" />
<path d="M55.443400 18.241200
L55.443900 18.241600
" />
<path d="M55.443900 18.241600
L55.447000 18.244800
" />
<path d="M55.447000 18.244800
L55.450300 18.248000
" />
<path d="M55.450300 18.248000
L55.598000 18.426600
" />
<path d="M55.598000 18.426600
L55.598400 18.427100
" />
<path d="M55.598400 18.427100
L55.600900 18.430900
" />
<path d="M55.600900 18.430900
L55.603500 18.434700
" />
<path d="M55.603500 18.434700
L55.713700 18.638600
" />
</g>
<g style="fill:#000000; fill-opacity:1.000000; stroke:none;">
<circle cx="55.713700" cy="18.638600" r="0.100000" /> 
<circle cx="55.713700" cy="18.638600" r="0.100000" /> 
</g>
<g style="fill:none; 
stroke:#000000; stroke-width:0.200000; stroke-opacity:1; 
stroke-linecap:round; stroke-linejoin:round;">
<path d="M55.713700 18.638600
L55.714000 18.639200
" />
<path d="M55.714000 18.639200
L55.715700 18.643400
" />
<path d="M55.715700 18.643400
L55.717500 18.647600
" />
<path d="M55.717500 18.647600
L55.786000 18.869000
" />
<path d="M55.786000 18.869000
L55.786200 18.869600
" />
<path d="M55.786200 18.869600
L55.787100 18.874100
" />
<path d="M55.787100 18.874100
L55.788000 18.878500
" />
<path d="M55.788000 18.878500
L55.812200 19.109000
" />
<path d="M55.812200 19.109000
L55.812300 19.109700
" />
<path d="M55.812300 19.109700
L55.812200 19.111900
" />
<path d="M55.812200 19.111900
L55.812500 19.114100
" />
<path d="M55.812500 19.114100
L55.812500 19.120000
" />
<path d="M55.812500 19.120000
L55.812500 19.120100
" />
<path d="M55.812500 19.120100
L55.817500 22.020252
" />
<path d="M60.557500 83.021073
L60.562500 83.247000
" />
<path d="M60.562500 83.247000
L60.562500 83.253000
" />
<path d="M60.562500 83.253000
L60.586000 83.476000
" />
<path d="M60.586000 83.476000
L60.651600 83.688000
" />
<path d="M60.651600 83.688000
L60.757200 83.883000
" />
<path d="M60.757200 83.883000
L60.898600 84.054000
" />
<path d="M60.898600 84.054000
L61.070700 84.195000
" />
<path d="M61.070700 84.195000
L61.266600 84.299000
" />
<path d="M61.266600 84.299000
L61.479100 84.363000
" />
<path d="M61.479100 84.363000
L61.702400 84.385000
" />
<path d="M61.702400 84.385000
L64.077400 84.385000
" />
<path d="M64.077400 84.385000
L64.079900 84.385000
" />
</g>
<g style="fill:#000000; fill-opacity:1.000000; stroke:none;">
<circle cx="64.079900" cy="84.385000" r="0.100000" /> 
</g>
<g style="fill:none; 
stroke:#000000; stroke-width:0.200000; stroke-opacity:1; 
stroke-linecap:round; stroke-linejoin:round;">
<path d="M64.079900 84.385000
L64.310500 84.408000
" />
</g>
<g style="fill:#000000; fill-opacity:1.000000; stroke:none;">
<circle cx="64.310500" cy="84.408000" r="0.100000" /> 
<circle cx="64.310500" cy="84.408000" r="0.100000" /> 
</g>
<g style="fill:none; 
stroke:#000000; stroke-width:0.200000; stroke-opacity:1; 
stroke-linecap:round; stroke-linejoin:round;">
<path d="M64.310500 84.408000
L64.311200 84.408000
" />
<path d="M64.311200 84.408000
L64.315600 84.409000
" />
<path d="M64.315600 84.409000
L64.320100 84.410000
" />
<path d="M64.320100 84.410000
L64.542000 84.477000
" />
<path d="M64.542000 84.477000
L64.542599 84.477000
" />
<path d="M64.542599 84.477000
L64.546800 84.479000
" />
<path d="M64.546800 84.479000
L64.551000 84.480000
" />
<path d="M64.551000 84.480000
L64.755600 84.589000
" />
</g>
<g style="fill:#000000; fill-opacity:1.000000; stroke:none;">
<circle cx="64.755600" cy="84.589000" r="0.100000" /> 
<circle cx="64.755600" cy="84.589000" r="0.100000" /> 
</g>
<g style="fill:none; 
stroke:#000000; stroke-width:0.200000; stroke-opacity:1; 
stroke-linecap:round; stroke-linejoin:round;">
<path d="M64.755600 84.589000
L64.756199 84.590000
" />
<path d="M64.756199 84.590000
L64.759999 84.592000
" />
<path d="M64.759999 84.592000
L64.763800 84.595000
" />
<path d="M64.763800 84.595000
L64.943400 84.741000
" />
<path d="M64.943400 84.741000
L64.943900 84.742000
" />
<path d="M64.943900 84.742000
L64.947000 84.745000
" />
<path d="M64.947000 84.745000
L64.950300 84.748000
" />
<path d="M64.950300 84.748000
L65.098000 84.927000
" />
<path d="M65.098000 84.927000
L65.098400 84.927000
" />
<path d="M65.098400 84.927000
L65.100900 84.931000
" />
<path d="M65.100900 84.931000
L65.103500 84.935000
" />
<path d="M65.103500 84.935000
L65.213700 85.139000
" />
</g>
<g style="fill:#000000; fill-opacity:1.000000; stroke:none;">
<circle cx="65.213700" cy="85.139000" r="0.100000" /> 
<circle cx="65.213700" cy="85.139000" r="0.100000" /> 
</g>
<g style="fill:none; 
stroke:#000000; stroke-width:0.200000; stroke-opacity:1; 
stroke-linecap:round; stroke-linejoin:round;">
<path d="M65.213700 85.139000
L65.214000 85.139000
" />
<path d="M65.214000 85.139000
L65.215700 85.143000
" />
<path d="M65.215700 85.143000
L65.217500 85.148000
" />
<path d="M65.217500 85.148000
L65.286000 85.369000
" />
<path d="M65.286000 85.369000
L65.286200 85.370000
" />
<path d="M65.286200 85.370000
L65.287100 85.374000
" />
<path d="M65.287100 85.374000
L65.288000 85.379000
" />
<path d="M65.288000 85.379000
L65.312200 85.609000
" />
<path d="M65.312200 85.609000
L65.312300 85.610000
" />
<path d="M65.312300 85.610000
L65.312200 85.612000
" />
<path d="M65.312200 85.612000
L65.312500 85.614000
" />
<path d="M65.312500 85.614000
L65.312500 85.620000
" />
</g>
<g style="fill:#000000; fill-opacity:1.000000; stroke:none;">
<circle cx="65.312500" cy="85.620000" r="0.100000" /> 
</g>
<g style="fill:none; 
stroke:#000000; stroke-width:0.200000; stroke-opacity:1; 
stroke-linecap:round; stroke-linejoin:round;">
<path d="M65.312500 85.620000
L65.312500 112.797000
" />
<path d="M65.312500 112.797000
L65.312500 112.803000
" />
<path d="M65.312500 112.803000
L65.336000 113.026000
" />
<path d="M65.336000 113.026000
L65.401600 113.238000
" />
<path d="M65.401600 113.238000
L65.507200 113.433000
" />
<path d="M65.507200 113.433000
L65.648600 113.604000
" />
<path d="M65.648600 113.604000
L65.820700 113.745000
" />
<path d="M65.820700 113.745000
L66.016600 113.849000
" />
<path d="M66.016600 113.849000
L66.229100 113.913000
" />
<path d="M66.229100 113.913000
L66.452400 113.935000
" />
<path d="M66.454500 113.934000
L231.619500 113.926000
" />
<path d="M197.180500 17.976000
L99.700500 17.985000
" />
<path d="M99.700500 17.985000
L99.694500 17.985000
" />
<path d="M99.694500 17.985000
L99.471500 18.008500
" />
<path d="M99.471500 18.008500
L99.259500 18.074100
" />
<path d="M99.259500 18.074100
L99.064500 18.179700
" />
<path d="M99.064500 18.179700
L98.893500 18.321200
" />
<path d="M98.893500 18.321200
L98.752500 18.493200
" />
<path d="M98.752500 18.493200
L98.648500 18.689100
" />
<path d="M98.648500 18.689100
L98.584500 18.901600
" />
<path d="M98.584500 18.901600
L98.562500 19.125000
" />
<path d="M98.562500 19.125000
L98.567500 22.018729
" />
<path d="M22.567500 83.020309
L22.562500 83.247000
" />
<path d="M22.562500 83.247000
L22.562500 83.253000
" />
<path d="M22.562500 83.253000
L22.586000 83.476000
" />
<path d="M22.586000 83.476000
L22.651600 83.688000
" />
<path d="M22.651600 83.688000
L22.757200 83.883000
" />
<path d="M22.757200 83.883000
L22.898600 84.054000
" />
<path d="M22.898600 84.054000
L23.070700 84.195000
" />
<path d="M23.070700 84.195000
L23.266600 84.299000
" />
<path d="M23.266600 84.299000
L23.479100 84.363000
" />
<path d="M23.479100 84.363000
L23.702400 84.385000
" />
<path d="M23.702400 84.385000
L54.574800 84.385000
" />
<path d="M54.574800 84.385000
L54.580600 84.385000
" />
<path d="M54.580600 84.385000
L54.803700 84.362000
" />
<path d="M54.803700 84.362000
L55.015700 84.296000
" />
<path d="M55.015700 84.296000
L55.210900 84.190000
" />
<path d="M55.210900 84.190000
L55.382000 84.049000
" />
<path d="M55.382000 84.049000
L55.522200 83.877000
" />
<path d="M55.522200 83.877000
L55.626400 83.681000
" />
<path d="M55.626400 83.681000
L55.690600 83.468000
" />
<path d="M55.690600 83.468000
L55.712500 83.245000
" />
<path d="M55.712500 83.245000
L55.717500 83.020309
" />
<path d="M93.727500 22.020252
L93.712500 19.122700
" />
<path d="M93.712500 19.122700
L93.712500 19.116900
" />
<path d="M93.712500 19.116900
L93.689000 18.893800
" />
<path d="M93.689000 18.893800
L93.623400 18.681800
" />
<path d="M93.623400 18.681800
L93.517800 18.486600
" />
<path d="M93.517800 18.486600
L93.376300 18.315600
" />
<path d="M93.376300 18.315600
L93.204300 18.175300
" />
<path d="M93.204300 18.175300
L93.008400 18.071100
" />
<path d="M93.008400 18.071100
L92.795900 18.006900
" />
<path d="M92.795900 18.006900
L92.572600 17.985000
" />
<path d="M92.572600 17.985000
L61.700200 17.985000
" />
<path d="M61.700200 17.985000
L61.694400 17.985000
" />
<path d="M61.694400 17.985000
L61.471300 18.008500
" />
<path d="M61.471300 18.008500
L61.259300 18.074100
" />
<path d="M61.259300 18.074100
L61.064100 18.179700
" />
<path d="M61.064100 18.179700
L60.893000 18.321200
" />
<path d="M60.893000 18.321200
L60.752800 18.493200
" />
<path d="M60.752800 18.493200
L60.648600 18.689100
" />
<path d="M60.648600 18.689100
L60.584400 18.901600
" />
<path d="M60.584400 18.901600
L60.562500 19.125000
" />
<path d="M60.562500 19.125000
L60.577500 22.018729
" />
<path d="M10.687500 85.625000
L10.687500 116.497000
" />
<path d="M236.317500 22.026729
L236.319500 19.113700
" />
<path d="M236.319500 19.113700
L236.319500 19.107900
" />
<path d="M236.319500 19.107900
L236.296500 18.884800
" />
<path d="M236.296500 18.884800
L236.230500 18.672800
" />
<path d="M236.230500 18.672800
L236.125500 18.477600
" />
<path d="M236.125500 18.477600
L235.983500 18.306600
" />
<path d="M235.983500 18.306600
L235.811500 18.166300
" />
<path d="M235.811500 18.166300
L235.615500 18.062100
" />
<path d="M235.615500 18.062100
L235.403500 17.997900
" />
<path d="M235.403500 17.997900
L235.180500 17.976000
" />
<path d="M235.180500 17.976000
L204.307500 17.976000
" />
<path d="M204.307500 17.976000
L204.301500 17.976000
" />
<path d="M204.301500 17.976000
L204.078500 17.999500
" />
<path d="M204.078500 17.999500
L203.866500 18.065100
" />
<path d="M203.866500 18.065100
L203.671500 18.170700
" />
<path d="M203.671500 18.170700
L203.500500 18.312200
" />
<path d="M203.500500 18.312200
L203.360500 18.484200
" />
<path d="M203.360500 18.484200
L203.256500 18.680100
" />
<path d="M203.256500 18.680100
L203.191500 18.892600
" />
<path d="M203.191500 18.892600
L203.170500 19.116000
" />
<path d="M203.170500 19.116000
L203.167500 22.028252
" />
<path d="M280.302500 84.476000
L280.071500 84.453000
" />
<path d="M285.864500 117.290000
L286.004500 117.118000
" />
<path d="M197.811500 18.166300
L197.615500 18.062100
" />
<path d="M197.983500 18.306600
L197.811500 18.166300
" />
<path d="M286.194500 85.608000
L286.195500 116.486000
" />
<path d="M198.327500 22.026729
L198.319500 19.113700
" />
<path d="M198.319500 19.113700
L198.319500 19.107900
" />
<path d="M198.319500 19.107900
L198.296500 18.884800
" />
<path d="M198.296500 18.884800
L198.230500 18.672800
" />
<path d="M198.230500 18.672800
L198.125500 18.477600
" />
<path d="M198.125500 18.477600
L197.983500 18.306600
" />
<path d="M197.615500 18.062100
L197.403500 17.997900
" />
<path d="M197.403500 17.997900
L197.180500 17.976000
" />
<path d="M241.177500 83.027309
L241.170500 83.238000
" />
<path d="M241.170500 83.238000
L241.170500 83.244000
" />
<path d="M241.170500 83.244000
L241.193500 83.467000
" />
<path d="M241.193500 83.467000
L241.259500 83.679000
" />
<path d="M241.259500 83.679000
L241.364500 83.874000
" />
<path d="M241.364500 83.874000
L241.506500 84.045000
" />
<path d="M241.506500 84.045000
L241.678500 84.186000
" />
<path d="M241.678500 84.186000
L241.874500 84.290000
" />
<path d="M241.874500 84.290000
L242.086500 84.354000
" />
<path d="M242.086500 84.354000
L242.309500 84.376000
" />
<path d="M242.309500 84.376000
L273.182500 84.376000
" />
<path d="M273.182500 84.376000
L273.188500 84.376000
" />
<path d="M273.188500 84.376000
L273.411500 84.353000
" />
<path d="M273.411500 84.353000
L273.623500 84.287000
" />
<path d="M273.623500 84.287000
L273.818500 84.181000
" />
<path d="M273.818500 84.181000
L273.989500 84.040000
" />
<path d="M273.989500 84.040000
L274.129500 83.868000
" />
<path d="M274.129500 83.868000
L274.233500 83.672000
" />
<path d="M274.233500 83.672000
L274.298500 83.459000
" />
<path d="M274.298500 83.459000
L274.319500 83.236000
" />
<path d="M274.319500 83.236000
L274.327500 83.027309
" />
<path d="M231.619500 113.926000
L231.625500 113.926000
" />
<path d="M231.625500 113.926000
L231.848500 113.903000
" />
<path d="M231.848500 113.903000
L232.060500 113.837000
" />
<path d="M232.060500 113.837000
L232.255500 113.731000
" />
<path d="M232.255500 113.731000
L232.426500 113.590000
" />
<path d="M232.426500 113.590000
L232.567500 113.418000
" />
<path d="M232.567500 113.418000
L232.671500 113.222000
" />
<path d="M232.671500 113.222000
L232.735500 113.009000
" />
<path d="M232.735500 113.009000
L232.757500 112.786000
" />
<path d="M232.757500 112.786000
L232.757500 85.611000
" />
<path d="M232.757500 85.611000
L232.757500 85.609000
" />
</g>
<g style="fill:#000000; fill-opacity:1.000000; stroke:none;">
<circle cx="232.757500" cy="85.609000" r="0.100000" /> 
</g>
<g style="fill:none; 
stroke:#000000; stroke-width:0.200000; stroke-opacity:1; 
stroke-linecap:round; stroke-linejoin:round;">
<path d="M232.757500 85.609000
L232.780500 85.378000
" />
</g>
<g style="fill:#000000; fill-opacity:1.000000; stroke:none;">
<circle cx="232.780500" cy="85.378000" r="0.100000" /> 
<circle cx="232.780500" cy="85.378000" r="0.100000" /> 
</g>
<g style="fill:none; 
stroke:#000000; stroke-width:0.200000; stroke-opacity:1; 
stroke-linecap:round; stroke-linejoin:round;">
<path d="M232.780500 85.378000
L232.780500 85.377000
" />
<path d="M232.780500 85.377000
L232.781500 85.373000
" />
<path d="M232.781500 85.373000
L232.782500 85.368000
" />
<path d="M232.782500 85.368000
L232.849500 85.147000
" />
<path d="M232.849500 85.147000
L232.849500 85.146000
" />
<path d="M232.849500 85.146000
L232.851500 85.142000
" />
<path d="M232.851500 85.142000
L232.852500 85.138000
" />
<path d="M232.852500 85.138000
L232.961500 84.933000
" />
</g>
<g style="fill:#000000; fill-opacity:1.000000; stroke:none;">
<circle cx="232.961500" cy="84.933000" r="0.100000" /> 
<circle cx="232.961500" cy="84.933000" r="0.100000" /> 
</g>
<g style="fill:none; 
stroke:#000000; stroke-width:0.200000; stroke-opacity:1; 
stroke-linecap:round; stroke-linejoin:round;">
<path d="M232.961500 84.933000
L232.962500 84.932000
" />
<path d="M232.962500 84.932000
L232.964500 84.929000
" />
<path d="M232.964500 84.929000
L232.967500 84.925000
" />
<path d="M232.967500 84.925000
L233.113500 84.745000
" />
<path d="M233.113500 84.745000
L233.114500 84.745000
" />
<path d="M233.114500 84.745000
L233.117500 84.741000
" />
<path d="M233.117500 84.741000
L233.120500 84.738000
" />
<path d="M233.120500 84.738000
L233.299500 84.591000
" />
<path d="M233.299500 84.591000
L233.299500 84.590000
" />
<path d="M233.299500 84.590000
L233.303500 84.588000
" />
<path d="M233.303500 84.588000
L233.307500 84.585000
" />
<path d="M233.307500 84.585000
L233.511500 84.475000
" />
</g>
<g style="fill:#000000; fill-opacity:1.000000; stroke:none;">
<circle cx="233.511500" cy="84.475000" r="0.100000" /> 
<circle cx="233.511500" cy="84.475000" r="0.100000" /> 
</g>
<g style="fill:none; 
stroke:#000000; stroke-width:0.200000; stroke-opacity:1; 
stroke-linecap:round; stroke-linejoin:round;">
<path d="M233.511500 84.475000
L233.511500 84.474000
" />
<path d="M233.511500 84.474000
L233.515500 84.473000
" />
<path d="M233.515500 84.473000
L233.520500 84.471000
" />
<path d="M233.520500 84.471000
L233.741500 84.403000
" />
</g>
<g style="fill:#000000; fill-opacity:1.000000; stroke:none;">
<circle cx="233.741500" cy="84.403000" r="0.100000" /> 
</g>
<g style="fill:none; 
stroke:#000000; stroke-width:0.200000; stroke-opacity:1; 
stroke-linecap:round; stroke-linejoin:round;">
<path d="M233.741500 84.403000
L233.742500 84.402000
" />
<path d="M233.742500 84.402000
L233.746500 84.401000
" />
<path d="M233.746500 84.401000
L233.750500 84.401000
" />
<path d="M233.750500 84.401000
L233.981500 84.376000
" />
<path d="M233.981500 84.376000
L233.982500 84.376000
" />
<path d="M233.982500 84.376000
L233.984500 84.376000
" />
<path d="M233.984500 84.376000
L233.986500 84.376000
" />
<path d="M233.986500 84.376000
L233.992500 84.376000
" />
</g>
<g style="fill:#000000; fill-opacity:1.000000; stroke:none;">
<circle cx="233.992500" cy="84.376000" r="0.100000" /> 
</g>
<g style="fill:none; 
stroke:#000000; stroke-width:0.200000; stroke-opacity:1; 
stroke-linecap:round; stroke-linejoin:round;">
<path d="M233.992500 84.376000
L235.182500 84.376000
" />
<path d="M235.182500 84.376000
L235.188500 84.376000
" />
<path d="M235.188500 84.376000
L235.411500 84.353000
" />
<path d="M235.411500 84.353000
L235.623500 84.287000
" />
<path d="M235.623500 84.287000
L235.818500 84.181000
" />
<path d="M235.818500 84.181000
L235.989500 84.040000
" />
<path d="M235.989500 84.040000
L236.129500 83.868000
" />
<path d="M236.129500 83.868000
L236.233500 83.672000
" />
<path d="M236.233500 83.672000
L236.298500 83.459000
" />
<path d="M236.298500 83.459000
L236.320500 83.236000
" />
<path d="M236.320500 83.236000
L236.327500 83.028073
" />
<path d="M241.092500 18.877300
L241.093500 18.872900
" />
<path d="M241.093500 18.872900
L241.094500 18.868400
" />
<path d="M241.094500 18.868400
L241.161500 18.646500
" />
<path d="M241.161500 18.646500
L241.161500 18.645900
" />
<path d="M241.161500 18.645900
L241.163500 18.641700
" />
<path d="M241.163500 18.641700
L241.165500 18.637500
" />
<path d="M241.165500 18.637500
L241.274500 18.432900
" />
</g>
<g style="fill:#000000; fill-opacity:1.000000; stroke:none;">
<circle cx="241.274500" cy="18.432900" r="0.100000" /> 
<circle cx="241.274500" cy="18.432900" r="0.100000" /> 
</g>
<g style="fill:none; 
stroke:#000000; stroke-width:0.200000; stroke-opacity:1; 
stroke-linecap:round; stroke-linejoin:round;">
<path d="M241.274500 18.432900
L241.274500 18.432300
" />
<path d="M241.274500 18.432300
L241.277500 18.428500
" />
<path d="M241.277500 18.428500
L241.279500 18.424800
" />
<path d="M241.279500 18.424800
L241.426500 18.245200
" />
<path d="M241.426500 18.245200
L241.426500 18.244600
" />
<path d="M241.426500 18.244600
L241.429500 18.241500
" />
<path d="M241.429500 18.241500
L241.433500 18.238200
" />
<path d="M241.433500 18.238200
L241.611500 18.090500
" />
<path d="M241.611500 18.090500
L241.612500 18.090100
" />
<path d="M241.612500 18.090100
L241.615500 18.087600
" />
<path d="M241.615500 18.087600
L241.619500 18.085100
" />
<path d="M241.619500 18.085100
L241.823500 17.974800
" />
</g>
<g style="fill:#000000; fill-opacity:1.000000; stroke:none;">
<circle cx="241.823500" cy="17.974800" r="0.100000" /> 
<circle cx="241.823500" cy="17.974800" r="0.100000" /> 
</g>
<g style="fill:none; 
stroke:#000000; stroke-width:0.200000; stroke-opacity:1; 
stroke-linecap:round; stroke-linejoin:round;">
<path d="M241.823500 17.974800
L241.824500 17.974500
" />
<path d="M241.824500 17.974500
L241.828500 17.972800
" />
<path d="M241.828500 17.972800
L241.832500 17.971000
" />
<path d="M241.832500 17.971000
L242.053500 17.902500
" />
</g>
<g style="fill:#000000; fill-opacity:1.000000; stroke:none;">
<circle cx="242.053500" cy="17.902500" r="0.100000" /> 
</g>
<g style="fill:none; 
stroke:#000000; stroke-width:0.200000; stroke-opacity:1; 
stroke-linecap:round; stroke-linejoin:round;">
<path d="M242.053500 17.902500
L242.054500 17.902300
" />
<path d="M242.054500 17.902300
L242.059500 17.901500
" />
<path d="M242.059500 17.901500
L242.063500 17.900500
" />
<path d="M242.063500 17.900500
L242.293500 17.876300
" />
<path d="M242.293500 17.876300
L242.294500 17.876300
" />
<path d="M242.294500 17.876300
L242.296500 17.876300
" />
<path d="M242.296500 17.876300
L242.299500 17.876000
" />
<path d="M242.299500 17.876000
L242.304500 17.876000
" />
<path d="M242.304500 17.876000
L242.305500 17.876000
" />
<path d="M242.305500 17.876000
L285.057500 17.876000
" />
<path d="M285.057500 17.876000
L285.063500 17.876000
" />
<path d="M285.063500 17.876000
L285.286500 17.852600
" />
<path d="M285.286500 17.852600
L285.498500 17.786900
" />
<path d="M285.498500 17.786900
L285.693500 17.681400
" />
<path d="M285.693500 17.681400
L285.864500 17.539900
" />
<path d="M285.864500 17.539900
L286.004500 17.367900
" />
<path d="M286.004500 17.367900
L286.108500 17.171900
" />
<path d="M286.108500 17.171900
L286.173500 16.959400
" />
<path d="M286.173500 16.959400
L286.195500 16.736100
" />
<path d="M286.195500 16.736100
L286.194500 13.176200
" />
<path d="M286.194500 13.176200
L286.194500 13.170400
" />
<path d="M286.194500 13.170400
L286.171500 12.947300
" />
<path d="M286.171500 12.947300
L286.105500 12.735300
" />
<path d="M286.105500 12.735300
L286.000500 12.540100
" />
<path d="M286.000500 12.540100
L285.858500 12.369100
" />
<path d="M285.858500 12.369100
L285.686500 12.228800
" />
<path d="M285.686500 12.228800
L285.490500 12.124600
" />
<path d="M285.490500 12.124600
L285.278500 12.060400
" />
<path d="M285.278500 12.060400
L285.055500 12.038500
" />
<path d="M241.077500 22.028252
L241.069500 19.111100
" />
<path d="M241.069500 19.111100
L241.070500 19.108600
" />
<path d="M241.070500 19.108600
L241.092500 18.878000
" />
</g>
<g style="fill:#000000; fill-opacity:1.000000; stroke:none;">
<circle cx="241.092500" cy="18.878000" r="0.100000" /> 
<circle cx="241.092500" cy="18.878000" r="0.100000" /> 
</g>
<g style="fill:none; 
stroke:#000000; stroke-width:0.200000; stroke-opacity:1; 
stroke-linecap:round; stroke-linejoin:round;">
<path d="M241.092500 18.878000
L241.092500 18.877300
" />
<path d="M279.070500 83.251000
L279.070500 83.249000
" />
<path d="M279.070500 83.249000
L279.070500 83.247000
" />
<path d="M279.070500 83.247000
L279.070500 83.241000
" />
<path d="M279.070500 83.241000
L279.069500 83.241000
" />
<path d="M279.069500 83.241000
L279.077500 83.028073
" />
<path d="M279.165500 83.713000
L279.096500 83.492000
" />
<path d="M279.096500 83.492000
L279.096500 83.491000
" />
<path d="M279.096500 83.491000
L279.095500 83.487000
" />
<path d="M279.095500 83.487000
L279.094500 83.483000
" />
<path d="M279.094500 83.483000
L279.070500 83.252000
" />
<path d="M279.070500 83.252000
L279.070500 83.251000
" />
<path d="M285.057500 117.626000
L285.063500 117.626000
" />
<path d="M285.063500 117.626000
L285.286500 117.603000
" />
<path d="M285.286500 117.603000
L285.498500 117.537000
" />
<path d="M285.498500 117.537000
L285.693500 117.431000
" />
<path d="M285.693500 117.431000
L285.864500 117.290000
" />
<path d="M286.004500 117.118000
L286.108500 116.922000
" />
<path d="M286.108500 116.922000
L286.173500 116.709000
" />
<path d="M286.173500 116.709000
L286.195500 116.486000
" />
<path d="M286.194500 85.608000
L286.171500 85.385000
" />
<path d="M286.171500 85.385000
L286.105500 85.173000
" />
<path d="M286.105500 85.173000
L286.000500 84.978000
" />
<path d="M286.000500 84.978000
L285.858500 84.807000
" />
<path d="M285.858500 84.807000
L285.686500 84.666000
" />
<path d="M285.686500 84.666000
L285.490500 84.562000
" />
<path d="M285.490500 84.562000
L285.278500 84.498000
" />
<path d="M285.278500 84.498000
L285.055500 84.476000
" />
<path d="M285.055500 84.476000
L280.305500 84.476000
" />
<path d="M280.305500 84.476000
L280.302500 84.476000
" />
</g>
<g style="fill:#000000; fill-opacity:1.000000; stroke:none;">
<circle cx="280.302500" cy="84.476000" r="0.100000" /> 
<circle cx="280.071500" cy="84.453000" r="0.100000" /> 
<circle cx="280.071500" cy="84.453000" r="0.100000" /> 
<circle cx="280.071500" cy="84.453000" r="0.100000" /> 
</g>
<g style="fill:none; 
stroke:#000000; stroke-width:0.200000; stroke-opacity:1; 
stroke-linecap:round; stroke-linejoin:round;">
<path d="M280.071500 84.453000
L280.066500 84.452000
" />
<path d="M280.066500 84.452000
L280.062500 84.451000
" />
<path d="M280.062500 84.451000
L279.840500 84.384000
" />
<path d="M279.840500 84.384000
L279.839500 84.384000
" />
<path d="M279.839500 84.384000
L279.835500 84.382000
" />
<path d="M279.835500 84.382000
L279.831500 84.381000
" />
<path d="M279.831500 84.381000
L279.626500 84.272000
" />
</g>
<g style="fill:#000000; fill-opacity:1.000000; stroke:none;">
<circle cx="279.626500" cy="84.272000" r="0.100000" /> 
</g>
<g style="fill:none; 
stroke:#000000; stroke-width:0.200000; stroke-opacity:1; 
stroke-linecap:round; stroke-linejoin:round;">
<path d="M279.626500 84.272000
L279.626500 84.271000
" />
<path d="M279.626500 84.271000
L279.622500 84.269000
" />
<path d="M279.622500 84.269000
L279.618500 84.266000
" />
<path d="M279.618500 84.266000
L279.439500 84.120000
" />
</g>
<g style="fill:#000000; fill-opacity:1.000000; stroke:none;">
<circle cx="279.439500" cy="84.120000" r="0.100000" /> 
<circle cx="279.439500" cy="84.120000" r="0.100000" /> 
</g>
<g style="fill:none; 
stroke:#000000; stroke-width:0.200000; stroke-opacity:1; 
stroke-linecap:round; stroke-linejoin:round;">
<path d="M279.439500 84.120000
L279.438500 84.119000
" />
<path d="M279.438500 84.119000
L279.435500 84.116000
" />
<path d="M279.435500 84.116000
L279.432500 84.113000
" />
<path d="M279.432500 84.113000
L279.284500 83.934000
" />
</g>
<g style="fill:#000000; fill-opacity:1.000000; stroke:none;">
<circle cx="279.284500" cy="83.934000" r="0.100000" /> 
</g>
<g style="fill:none; 
stroke:#000000; stroke-width:0.200000; stroke-opacity:1; 
stroke-linecap:round; stroke-linejoin:round;">
<path d="M279.284500 83.934000
L279.281500 83.930000
" />
<path d="M279.281500 83.930000
L279.279500 83.926000
" />
<path d="M279.279500 83.926000
L279.168500 83.722000
" />
</g>
<g style="fill:#000000; fill-opacity:1.000000; stroke:none;">
<circle cx="279.168500" cy="83.722000" r="0.100000" /> 
<circle cx="279.168500" cy="83.722000" r="0.100000" /> 
<circle cx="279.168500" cy="83.722000" r="0.100000" /> 
</g>
<g style="fill:none; 
stroke:#000000; stroke-width:0.200000; stroke-opacity:1; 
stroke-linecap:round; stroke-linejoin:round;">
<path d="M279.168500 83.722000
L279.166500 83.718000
" />
<path d="M279.166500 83.718000
L279.165500 83.713000
" />
<path d="M181.629500,102.678000 C181.842930,102.613557 182.062163,102.570169 182.284056,102.548460" />
<path d="M152.181791,87.625717 C152.029054,87.360585 151.950612,87.059178 151.954700,86.753228" />
<path d="M191.706177 24.025707
L191.706177 22.527109
" />
<path d="M173.204835 24.526087
L191.205797 24.526087
" />
<path d="M151.954700,27.278174 C151.954759,27.002128 152.178537,26.778365 152.454583,26.778301" />
<path d="M151.955216 27.276904
L151.955216 86.750945
" />
<path d="M241.177500 83.027309
L274.327500 83.027309
" />
<path d="M285.704628 27.278174
L285.706404 82.526930
" />
<path d="M248.205881 26.776525
L285.204501 26.778301
" />
<path d="M211.205737 19.776292
L228.205940 19.776292
" />
<path d="M210.705358 21.526350
L210.705358 20.276671
" />
<path d="M192.206556 22.026729
L198.327500 22.026729
" />
<path d="M181.629500 102.678000
L167.335417 110.939084
" />
<path d="M172.706995 25.026466
L172.704713 26.278179
" />
<path d="M172.704713,25.028242 C172.704654,24.752107 172.928431,24.528195 173.204577,24.528121" />
<path d="M247.705501 22.527109
L247.705501 26.276145
" />
<path d="M229.206699 22.026729
L236.317500 22.026729
" />
<path d="M228.706320 20.276671
L228.706320 21.526350
" />
<path d="M152.455595 26.776525
L172.204592 26.778301
" />
<path d="M285.704628,82.528200 C285.704558,82.804345 285.480647,83.028143 285.204506,83.028073" />
<path d="M285.204506,83.028073 C285.204501,83.028073 285.204501,83.028073 285.204501,83.028073" />
<path d="M285.204501,26.778301 C285.480642,26.778231 285.704558,27.002029 285.704628,27.278169" />
<path d="M285.704628,27.278169 C285.704628,27.278174 285.704628,27.278174 285.704628,27.278174" />
<path d="M248.204611,26.778301 C247.928465,26.778370 247.704559,26.554568 247.704489,26.278427" />
<path d="M247.704489,26.278427 C247.704489,26.278343 247.704489,26.278264 247.704489,26.278179" />
<path d="M247.204616,22.028252 C247.480662,22.028322 247.704420,22.252080 247.704489,22.528126" />
<path d="M229.204665,22.028252 C228.928520,22.028322 228.704613,21.804519 228.704544,21.528379" />
<path d="M228.704544,21.528379 C228.704544,21.528295 228.704544,21.528210 228.704544,21.528126" />
<path d="M228.204670,19.778068 C228.480816,19.778137 228.704613,20.002049 228.704544,20.278189" />
<path d="M228.704544,20.278189 C228.704544,20.278194 228.704544,20.278194 228.704544,20.278194" />
<path d="M210.704594,20.278194 C210.704524,20.002054 210.928322,19.778137 211.204467,19.778068" />
<path d="M211.204467,19.778068 C211.204467,19.778068 211.204467,19.778068 211.204467,19.778068" />
<path d="M210.704594,21.528126 C210.704663,21.804266 210.480866,22.028183 210.204720,22.028252" />
<path d="M210.204720,22.028252 C210.204641,22.028252 210.204552,22.028252 210.204472,22.028252" />
<path d="M191.704649,22.528126 C191.704718,22.252080 191.928476,22.028322 192.204522,22.028252" />
<path d="M191.704649,24.028247 C191.704579,24.304388 191.480672,24.528190 191.204527,24.528121" />
<path d="M165.407300 110.559612
L152.181276 87.627245
" />
<path d="M165.410396,110.564226 C165.409364,110.562688 165.408332,110.561150 165.407300,110.559612" />
<path d="M167.335417,110.939084 C166.700318,111.367153 165.838465,111.199314 165.410396,110.564226" />
<path d="M218.954506 97.778087
L182.284056 102.548460
" />
<path d="M219.308071,97.631789 C219.214280,97.725501 219.087101,97.778126 218.954506,97.778087" />
<path d="M229.851095 83.174629
L219.308071 97.631789
" />
<path d="M172.704713,26.278179 C172.704773,26.554320 172.480975,26.778231 172.204830,26.778301" />
<path d="M172.204830,26.778301 C172.204750,26.778301 172.204671,26.778301 172.204592,26.778301" />
<path d="M66.690339 83.020073
L60.557500 83.021073
" />
<path d="M11.690499 83.020073
L17.807500 83.020309
" />
<path d="M49.690384 22.020252
L55.817500 22.020252
" />
<path d="M86.690528 22.020252
L93.727500 22.020252
" />
<path d="M124.690170,26.770301 C124.690250,26.770301 124.690329,26.770301 124.690408,26.770301" />
<path d="M124.190287,26.270179 C124.190227,26.546320 124.414025,26.770231 124.690170,26.770301" />
<path d="M67.043905 83.166629
L77.586929 97.623789
" />
<path d="M77.940494 97.770087
L114.610944 102.540460
" />
<path d="M129.559583,110.931084 C130.194682,111.359153 131.056535,111.191314 131.484604,110.556226" />
<path d="M131.484604,110.556226 C131.485636,110.554688 131.486668,110.553150 131.487700,110.551612" />
<path d="M131.487700 110.551612
L144.713724 87.619245
" />
<path d="M105.190351,24.020247 C105.190421,24.296388 105.414328,24.520190 105.690473,24.520121" />
<path d="M105.190351,22.520126 C105.190282,22.244080 104.966524,22.020322 104.690478,22.020252" />
<path d="M86.690280,22.020252 C86.690359,22.020252 86.690448,22.020252 86.690528,22.020252" />
<path d="M86.190406,21.520126 C86.190337,21.796266 86.414134,22.020183 86.690280,22.020252" />
<path d="M85.690533,19.770068 C85.690533,19.770068 85.690533,19.770068 85.690533,19.770068" />
<path d="M86.190406,20.270194 C86.190476,19.994054 85.966678,19.770137 85.690533,19.770068" />
<path d="M68.190456,20.270189 C68.190456,20.270194 68.190456,20.270194 68.190456,20.270194" />
<path d="M68.690330,19.770068 C68.414184,19.770137 68.190387,19.994049 68.190456,20.270189" />
<path d="M68.190456,21.520379 C68.190456,21.520295 68.190456,21.520210 68.190456,21.520126" />
<path d="M67.690335,22.020252 C67.966480,22.020322 68.190387,21.796519 68.190456,21.520379" />
<path d="M49.690384,22.020252 C49.414338,22.020322 49.190580,22.244080 49.190511,22.520126" />
<path d="M49.190511,26.270427 C49.190511,26.270343 49.190511,26.270264 49.190511,26.270179" />
<path d="M48.690389,26.770301 C48.966535,26.770370 49.190441,26.546568 49.190511,26.270427" />
<path d="M11.190372,27.270169 C11.190372,27.270174 11.190372,27.270174 11.190372,27.270174" />
<path d="M11.690499,26.770301 C11.414358,26.770231 11.190442,26.994029 11.190372,27.270169" />
<path d="M11.690494,83.020073 C11.690499,83.020073 11.690499,83.020073 11.690499,83.020073" />
<path d="M11.190372,82.520200 C11.190442,82.796345 11.414353,83.020143 11.690494,83.020073" />
<path d="M144.439405 26.768525
L124.690408 26.770301
" />
<path d="M68.190456 20.270194
L68.188680 21.518350
" />
<path d="M67.688301 22.018729
L60.577500 22.018729
" />
<path d="M49.189499 22.519109
L49.189499 26.268145
" />
<path d="M124.190287,25.020242 C124.190346,24.744107 123.966569,24.520195 123.690423,24.520121" />
<path d="M124.188005 25.018466
L124.190287 26.270179
" />
<path d="M115.265500 102.670000
L129.559583 110.931084
" />
<path d="M104.688444 22.018729
L98.567500 22.018729
" />
<path d="M86.189642 21.518350
L86.189642 20.268671
" />
<path d="M85.689263 19.768292
L68.689060 19.768292
" />
<path d="M48.689119 26.768525
L11.690499 26.770301
" />
<path d="M11.190372 27.270174
L11.188596 82.518930
" />
<path d="M55.717500 83.020309
L22.567500 83.020309
" />
<path d="M144.939784 27.268904
L144.939784 86.742945
" />
<path d="M144.940300,27.270174 C144.940241,26.994128 144.716463,26.770365 144.440417,26.770301" />
<path d="M123.690165 24.518087
L105.689203 24.518087
" />
<path d="M105.188823 24.017707
L105.188823 22.519109
" />
<path d="M144.713209,87.617717 C144.865946,87.352585 144.944388,87.051178 144.940300,86.745228" />
<path d="M229.851095,83.174629 C229.944847,83.080818 230.072035,83.028103 230.204661,83.028073" />
<path d="M77.586929,97.623789 C77.680720,97.717501 77.807899,97.770126 77.940494,97.770087" />
<path d="M67.043905,83.166629 C66.950153,83.072818 66.822965,83.020103 66.690339,83.020073" />
<path d="M115.265500,102.670000 C115.052070,102.605557 114.832837,102.562169 114.610944,102.540460" />
<path d="M210.204472 22.028252
L203.167500 22.028252
" />
<path d="M230.204661 83.028073
L236.327500 83.028073
" />
<path d="M247.204616 22.028252
L241.077500 22.028252
" />
<path d="M285.204501 83.028073
L279.077500 83.028073
" />
</g>
<g style="fill:none; 
stroke:#000000; stroke-width:0.120000; stroke-opacity:1; 
stroke-linecap:round; stroke-linejoin:round;">
<path d="M18.307500 38.980000
L21.907500 38.980000
" />
<path d="M18.307500 42.080000
L18.307500 38.980000
" />
<path d="M21.907500 38.980000
L21.907500 42.080000
" />
<path d="M21.907500 42.080000
L18.307500 42.080000
" />
<path d="M37.307500 38.980000
L40.907500 38.980000
" />
<path d="M37.307500 42.080000
L37.307500 38.980000
" />
<path d="M40.907500 38.980000
L40.907500 42.080000
" />
<path d="M40.907500 42.080000
L37.307500 42.080000
" />
<path d="M56.307500 34.230000
L59.907500 34.230000
" />
<path d="M56.307500 37.330000
L56.307500 34.230000
" />
<path d="M59.907500 34.230000
L59.907500 37.330000
" />
<path d="M59.907500 37.330000
L56.307500 37.330000
" />
<path d="M75.307500 31.855000
L78.907500 31.855000
" />
<path d="M75.307500 34.955000
L75.307500 31.855000
" />
<path d="M78.907500 31.855000
L78.907500 34.955000
" />
<path d="M78.907500 34.955000
L75.307500 34.955000
" />
<path d="M94.307500 34.230000
L97.907500 34.230000
" />
<path d="M94.307500 37.330000
L94.307500 34.230000
" />
<path d="M97.907500 34.230000
L97.907500 37.330000
" />
<path d="M97.907500 37.330000
L94.307500 37.330000
" />
<path d="M113.307500 36.605000
L116.907500 36.605000
" />
<path d="M113.307500 39.705000
L113.307500 36.605000
" />
<path d="M116.907500 36.605000
L116.907500 39.705000
" />
<path d="M116.907500 39.705000
L113.307500 39.705000
" />
<path d="M18.307500 57.980000
L21.907500 57.980000
" />
<path d="M18.307500 61.080000
L18.307500 57.980000
" />
<path d="M21.907500 57.980000
L21.907500 61.080000
" />
<path d="M21.907500 61.080000
L18.307500 61.080000
" />
<path d="M37.307500 57.980000
L40.907500 57.980000
" />
<path d="M37.307500 61.080000
L37.307500 57.980000
" />
<path d="M40.907500 57.980000
L40.907500 61.080000
" />
<path d="M40.907500 61.080000
L37.307500 61.080000
" />
<path d="M56.307500 53.230000
L59.907500 53.230000
" />
<path d="M56.307500 56.330000
L56.307500 53.230000
" />
<path d="M59.907500 53.230000
L59.907500 56.330000
" />
<path d="M59.907500 56.330000
L56.307500 56.330000
" />
<path d="M75.307500 50.855000
L78.907500 50.855000
" />
<path d="M75.307500 53.955000
L75.307500 50.855000
" />
<path d="M78.907500 50.855000
L78.907500 53.955000
" />
<path d="M78.907500 53.955000
L75.307500 53.955000
" />
<path d="M94.307500 53.230000
L97.907500 53.230000
" />
<path d="M94.307500 56.330000
L94.307500 53.230000
" />
<path d="M97.907500 53.230000
L97.907500 56.330000
" />
<path d="M97.907500 56.330000
L94.307500 56.330000
" />
<path d="M113.307500 55.605000
L116.907500 55.605000
" />
<path d="M113.307500 58.705000
L113.307500 55.605000
" />
<path d="M116.907500 55.605000
L116.907500 58.705000
" />
<path d="M116.907500 58.705000
L113.307500 58.705000
" />
<path d="M18.307500 76.980000
L21.907500 76.980000
" />
<path d="M18.307500 80.080000
L18.307500 76.980000
" />
<path d="M21.907500 76.980000
L21.907500 80.080000
" />
<path d="M21.907500 80.080000
L18.307500 80.080000
" />
<path d="M37.307500 76.980000
L40.907500 76.980000
" />
<path d="M37.307500 80.080000
L37.307500 76.980000
" />
<path d="M40.907500 76.980000
L40.907500 80.080000
" />
<path d="M40.907500 80.080000
L37.307500 80.080000
" />
<path d="M56.307500 72.230000
L59.907500 72.230000
" />
<path d="M56.307500 75.330000
L56.307500 72.230000
" />
<path d="M59.907500 72.230000
L59.907500 75.330000
" />
<path d="M59.907500 75.330000
L56.307500 75.330000
" />
<path d="M75.307500 69.855000
L78.907500 69.855000
" />
<path d="M75.307500 72.955000
L75.307500 69.855000
" />
<path d="M78.907500 69.855000
L78.907500 72.955000
" />
<path d="M78.907500 72.955000
L75.307500 72.955000
" />
<path d="M113.307500 74.605000
L116.907500 74.605000
" />
<path d="M113.307500 77.705000
L113.307500 74.605000
" />
<path d="M116.907500 74.605000
L116.907500 77.705000
" />
<path d="M116.907500 77.705000
L113.307500 77.705000
" />
<path d="M131.728782 98.313846
L133.528782 95.196154
" />
<path d="M133.528782 95.196154
L136.213460 96.746154
" />
<path d="M134.413460 99.863846
L131.728782 98.313846
" />
<path d="M136.213460 96.746154
L134.413460 99.863846
" />
<path d="M217.807500 50.855000
L221.407500 50.855000
" />
<path d="M217.807500 53.955000
L217.807500 50.855000
" />
<path d="M221.407500 50.855000
L221.407500 53.955000
" />
<path d="M221.407500 53.955000
L217.807500 53.955000
" />
<path d="M198.807500 53.230000
L202.407500 53.230000
" />
<path d="M198.807500 56.330000
L198.807500 53.230000
" />
<path d="M202.407500 53.230000
L202.407500 56.330000
" />
<path d="M202.407500 56.330000
L198.807500 56.330000
" />
<path d="M179.807500 55.605000
L183.407500 55.605000
" />
<path d="M179.807500 58.705000
L179.807500 55.605000
" />
<path d="M183.407500 55.605000
L183.407500 58.705000
" />
<path d="M183.407500 58.705000
L179.807500 58.705000
" />
<path d="M274.807500 76.980000
L278.407500 76.980000
" />
<path d="M274.807500 80.080000
L274.807500 76.980000
" />
<path d="M278.407500 76.980000
L278.407500 80.080000
" />
<path d="M278.407500 80.080000
L274.807500 80.080000
" />
<path d="M255.807500 76.980000
L259.407500 76.980000
" />
<path d="M255.807500 80.080000
L255.807500 76.980000
" />
<path d="M259.407500 76.980000
L259.407500 80.080000
" />
<path d="M259.407500 80.080000
L255.807500 80.080000
" />
<path d="M236.807500 72.230000
L240.407500 72.230000
" />
<path d="M236.807500 75.330000
L236.807500 72.230000
" />
<path d="M240.407500 72.230000
L240.407500 75.330000
" />
<path d="M240.407500 75.330000
L236.807500 75.330000
" />
<path d="M217.807500 69.855000
L221.407500 69.855000
" />
<path d="M217.807500 72.955000
L217.807500 69.855000
" />
<path d="M221.407500 69.855000
L221.407500 72.955000
" />
<path d="M221.407500 72.955000
L217.807500 72.955000
" />
<path d="M198.807500 72.230000
L202.407500 72.230000
" />
<path d="M198.807500 75.330000
L198.807500 72.230000
" />
<path d="M202.407500 72.230000
L202.407500 75.330000
" />
<path d="M202.407500 75.330000
L198.807500 75.330000
" />
<path d="M179.807500 74.605000
L183.407500 74.605000
" />
<path d="M179.807500 77.705000
L179.807500 74.605000
" />
<path d="M183.407500 74.605000
L183.407500 77.705000
" />
<path d="M183.407500 77.705000
L179.807500 77.705000
" />
<path d="M208.307500 91.855000
L211.907500 91.855000
" />
<path d="M208.307500 94.955000
L208.307500 91.855000
" />
<path d="M211.907500 91.855000
L211.907500 94.955000
" />
<path d="M211.907500 94.955000
L208.307500 94.955000
" />
<path d="M188.204054 94.956837
L191.681387 94.025089
" />
<path d="M189.006393 97.951207
L188.204054 94.956837
" />
<path d="M191.681387 94.025089
L192.483726 97.019459
" />
<path d="M192.483726 97.019459
L189.006393 97.951207
" />
<path d="M84.807500 91.855000
L88.407500 91.855000
" />
<path d="M84.807500 94.955000
L84.807500 91.855000
" />
<path d="M88.407500 91.855000
L88.407500 94.955000
" />
<path d="M88.407500 94.955000
L84.807500 94.955000
" />
<path d="M104.238274 97.024459
L105.040613 94.030089
" />
<path d="M105.040613 94.030089
L108.517946 94.961837
" />
<path d="M107.715607 97.956207
L104.238274 97.024459
" />
<path d="M108.517946 94.961837
L107.715607 97.956207
" />
<path d="M94.307500 72.230000
L97.907500 72.230000
" />
<path d="M94.307500 75.330000
L94.307500 72.230000
" />
<path d="M97.907500 72.230000
L97.907500 75.330000
" />
<path d="M97.907500 75.330000
L94.307500 75.330000
" />
<path d="M274.807500 38.980000
L278.407500 38.980000
" />
<path d="M274.807500 42.080000
L274.807500 38.980000
" />
<path d="M278.407500 38.980000
L278.407500 42.080000
" />
<path d="M278.407500 42.080000
L274.807500 42.080000
" />
<path d="M255.807500 38.980000
L259.407500 38.980000
" />
<path d="M255.807500 42.080000
L255.807500 38.980000
" />
<path d="M259.407500 38.980000
L259.407500 42.080000
" />
<path d="M259.407500 42.080000
L255.807500 42.080000
" />
<path d="M236.807500 34.230000
L240.407500 34.230000
" />
<path d="M236.807500 37.330000
L236.807500 34.230000
" />
<path d="M240.407500 34.230000
L240.407500 37.330000
" />
<path d="M240.407500 37.330000
L236.807500 37.330000
" />
<path d="M217.807500 31.855000
L221.407500 31.855000
" />
<path d="M217.807500 34.955000
L217.807500 31.855000
" />
<path d="M221.407500 31.855000
L221.407500 34.955000
" />
<path d="M221.407500 34.955000
L217.807500 34.955000
" />
<path d="M198.807500 34.230000
L202.407500 34.230000
" />
<path d="M198.807500 37.330000
L198.807500 34.230000
" />
<path d="M202.407500 34.230000
L202.407500 37.330000
" />
<path d="M202.407500 37.330000
L198.807500 37.330000
" />
<path d="M179.807500 36.605000
L183.407500 36.605000
" />
<path d="M179.807500 39.705000
L179.807500 36.605000
" />
<path d="M183.407500 36.605000
L183.407500 39.705000
" />
<path d="M183.407500 39.705000
L179.807500 39.705000
" />
<path d="M274.807500 57.980000
L278.407500 57.980000
" />
<path d="M274.807500 61.080000
L274.807500 57.980000
" />
<path d="M278.407500 57.980000
L278.407500 61.080000
" />
<path d="M278.407500 61.080000
L274.807500 61.080000
" />
<path d="M255.807500 57.980000
L259.407500 57.980000
" />
<path d="M255.807500 61.080000
L255.807500 57.980000
" />
<path d="M259.407500 57.980000
L259.407500 61.080000
" />
<path d="M259.407500 61.080000
L255.807500 61.080000
" />
<path d="M236.807500 53.230000
L240.407500 53.230000
" />
<path d="M236.807500 56.330000
L236.807500 53.230000
" />
<path d="M240.407500 53.230000
L240.407500 56.330000
" />
<path d="M240.407500 56.330000
L236.807500 56.330000
" />
<path d="M160.508540 96.741154
L163.193218 95.191154
" />
<path d="M162.308540 99.858846
L160.508540 96.741154
" />
<path d="M163.193218 95.191154
L164.993218 98.308846
" />
<path d="M164.993218 98.308846
L162.308540 99.858846
" />
</g> 
</svg>
